<mxfile host="app.diagrams.net" agent="Mozilla/5.0 (Windows NT 10.0; Win64; x64) AppleWebKit/537.36 (KHTML, like Gecko) Chrome/135.0.0.0 Safari/537.36" version="26.2.14">
  <diagram name="Page-1" id="CwJgsHFjLdVUsGJhv82a">
    <mxGraphModel dx="6329" dy="2520" grid="1" gridSize="10" guides="1" tooltips="1" connect="1" arrows="1" fold="1" page="1" pageScale="1" pageWidth="850" pageHeight="1100" math="0" shadow="0">
      <root>
        <mxCell id="0" />
        <mxCell id="1" parent="0" />
        <mxCell id="ZhJgSsFKiW_KJ7nUg3D_-2" value="Open Starlight" style="html=1;overflow=block;blockSpacing=1;whiteSpace=wrap;fontSize=16.7;spacing=3.8;strokeOpacity=100;rounded=1;absoluteArcSize=1;arcSize=9;strokeWidth=NaN;lucidId=8Yr.N6paqiwt;fillColor=#FF82F7;" parent="1" vertex="1">
          <mxGeometry x="-195" y="-130" width="120" height="60" as="geometry" />
        </mxCell>
        <mxCell id="ZhJgSsFKiW_KJ7nUg3D_-3" value="Log in or Sign up" style="html=1;overflow=block;blockSpacing=1;whiteSpace=wrap;fontSize=16.7;spacing=3.8;strokeOpacity=100;rounded=1;absoluteArcSize=1;arcSize=9;strokeWidth=NaN;lucidId=mZr.YkDPpje3;fillColor=#60a917;fontColor=#ffffff;strokeColor=#2D7600;" parent="1" vertex="1">
          <mxGeometry x="-195" y="90" width="120" height="60" as="geometry" />
        </mxCell>
        <mxCell id="ZhJgSsFKiW_KJ7nUg3D_-4" value="Log in" style="html=1;overflow=block;blockSpacing=1;whiteSpace=wrap;fontSize=16.7;spacing=3.8;strokeOpacity=100;rounded=1;absoluteArcSize=1;arcSize=9;strokeWidth=NaN;lucidId=AZr.5KdVcYWQ;fillColor=#60a917;fontColor=#ffffff;strokeColor=#2D7600;" parent="1" vertex="1">
          <mxGeometry x="-285" y="180" width="120" height="60" as="geometry" />
        </mxCell>
        <mxCell id="ZhJgSsFKiW_KJ7nUg3D_-5" value="Sign up" style="html=1;overflow=block;blockSpacing=1;whiteSpace=wrap;fontSize=16.7;spacing=3.8;strokeOpacity=100;rounded=1;absoluteArcSize=1;arcSize=9;strokeWidth=NaN;lucidId=CZr.ph82YtXj;fillColor=#60a917;fontColor=#ffffff;strokeColor=#2D7600;" parent="1" vertex="1">
          <mxGeometry x="-120" y="180" width="120" height="60" as="geometry" />
        </mxCell>
        <mxCell id="ZhJgSsFKiW_KJ7nUg3D_-6" value="Continue with google" style="html=1;overflow=block;blockSpacing=1;whiteSpace=wrap;fontSize=16.7;spacing=3.8;strokeOpacity=100;rounded=1;absoluteArcSize=1;arcSize=9;strokeWidth=NaN;lucidId=5Zr._5xbKj4D;" parent="1" vertex="1">
          <mxGeometry x="-285" y="255" width="120" height="60" as="geometry" />
        </mxCell>
        <mxCell id="ZhJgSsFKiW_KJ7nUg3D_-7" value="Continue with google" style="html=1;overflow=block;blockSpacing=1;whiteSpace=wrap;fontSize=16.7;spacing=3.8;strokeOpacity=100;rounded=1;absoluteArcSize=1;arcSize=9;strokeWidth=NaN;lucidId=-Zr.tMvXOSx0;" parent="1" vertex="1">
          <mxGeometry x="-120" y="255" width="120" height="60" as="geometry" />
        </mxCell>
        <mxCell id="ZhJgSsFKiW_KJ7nUg3D_-8" value="Create account with email &amp; pass" style="html=1;overflow=block;blockSpacing=1;whiteSpace=wrap;fontSize=16.7;spacing=3.8;strokeOpacity=100;rounded=1;absoluteArcSize=1;arcSize=9;strokeWidth=NaN;lucidId=d0r.P-DTl7vA;" parent="1" vertex="1">
          <mxGeometry x="15" y="247" width="120" height="76" as="geometry" />
        </mxCell>
        <mxCell id="ZhJgSsFKiW_KJ7nUg3D_-9" value="Log in with email &amp; pass" style="html=1;overflow=block;blockSpacing=1;whiteSpace=wrap;fontSize=16.7;spacing=3.8;strokeOpacity=100;rounded=1;absoluteArcSize=1;arcSize=9;strokeWidth=NaN;lucidId=i0r.D65zIEHH;" parent="1" vertex="1">
          <mxGeometry x="-420" y="255" width="120" height="60" as="geometry" />
        </mxCell>
        <mxCell id="ZhJgSsFKiW_KJ7nUg3D_-10" value="Username &amp; pass" style="html=1;overflow=block;blockSpacing=1;whiteSpace=wrap;fontSize=16.7;spacing=3.8;strokeOpacity=100;rounded=1;absoluteArcSize=1;arcSize=9;strokeWidth=NaN;lucidId=80r.AD4x0.C4;" parent="1" vertex="1">
          <mxGeometry x="150" y="255" width="120" height="60" as="geometry" />
        </mxCell>
        <mxCell id="ZhJgSsFKiW_KJ7nUg3D_-11" value="Username &amp; pass" style="html=1;overflow=block;blockSpacing=1;whiteSpace=wrap;fontSize=16.7;spacing=3.8;strokeOpacity=100;rounded=1;absoluteArcSize=1;arcSize=9;strokeWidth=NaN;lucidId=c1r.usy55AvC;" parent="1" vertex="1">
          <mxGeometry x="-555" y="255" width="120" height="60" as="geometry" />
        </mxCell>
        <mxCell id="ZhJgSsFKiW_KJ7nUg3D_-12" value="" style="html=1;jettySize=18;whiteSpace=wrap;fontSize=13;strokeOpacity=100;strokeWidth=0.8;rounded=1;arcSize=12;edgeStyle=orthogonalEdgeStyle;startArrow=none;endArrow=block;endFill=1;exitX=0.5;exitY=1;exitPerimeter=0;entryX=0.5;entryY=0;entryPerimeter=0;lucidId=E2r.KWUuNpV2;fillColor=#a20025;strokeColor=#6F0000;" parent="1" source="ZhJgSsFKiW_KJ7nUg3D_-2" target="ZhJgSsFKiW_KJ7nUg3D_-3" edge="1">
          <mxGeometry width="100" height="100" relative="1" as="geometry">
            <Array as="points" />
          </mxGeometry>
        </mxCell>
        <mxCell id="ZhJgSsFKiW_KJ7nUg3D_-13" value="" style="html=1;jettySize=18;whiteSpace=wrap;fontSize=13;strokeOpacity=100;strokeWidth=0.8;rounded=1;arcSize=12;edgeStyle=orthogonalEdgeStyle;startArrow=none;endArrow=block;endFill=1;exitX=0.5;exitY=1;exitPerimeter=0;entryX=0.5;entryY=0;entryPerimeter=0;lucidId=02r.vJUuN4pX;" parent="1" source="ZhJgSsFKiW_KJ7nUg3D_-3" target="ZhJgSsFKiW_KJ7nUg3D_-5" edge="1">
          <mxGeometry width="100" height="100" relative="1" as="geometry">
            <Array as="points" />
          </mxGeometry>
        </mxCell>
        <mxCell id="ZhJgSsFKiW_KJ7nUg3D_-14" value="" style="html=1;jettySize=18;whiteSpace=wrap;fontSize=13;strokeOpacity=100;strokeWidth=0.8;rounded=1;arcSize=12;edgeStyle=orthogonalEdgeStyle;startArrow=none;endArrow=block;endFill=1;exitX=0.5;exitY=1;exitPerimeter=0;entryX=0.5;entryY=0;entryPerimeter=0;lucidId=72r.O89L_K84;" parent="1" source="ZhJgSsFKiW_KJ7nUg3D_-3" target="ZhJgSsFKiW_KJ7nUg3D_-4" edge="1">
          <mxGeometry width="100" height="100" relative="1" as="geometry">
            <Array as="points" />
          </mxGeometry>
        </mxCell>
        <mxCell id="ZhJgSsFKiW_KJ7nUg3D_-15" value="" style="html=1;jettySize=18;whiteSpace=wrap;fontSize=13;strokeOpacity=100;strokeWidth=0.8;rounded=1;arcSize=12;edgeStyle=orthogonalEdgeStyle;startArrow=none;endArrow=block;endFill=1;exitX=0.5;exitY=1;exitPerimeter=0;entryX=0.5;entryY=0;entryPerimeter=0;lucidId=a3r.cBqFPZu~;" parent="1" source="ZhJgSsFKiW_KJ7nUg3D_-4" target="ZhJgSsFKiW_KJ7nUg3D_-6" edge="1">
          <mxGeometry width="100" height="100" relative="1" as="geometry">
            <Array as="points" />
          </mxGeometry>
        </mxCell>
        <mxCell id="ZhJgSsFKiW_KJ7nUg3D_-16" value="" style="html=1;jettySize=18;whiteSpace=wrap;fontSize=13;strokeOpacity=100;strokeWidth=0.8;rounded=1;arcSize=12;edgeStyle=orthogonalEdgeStyle;startArrow=none;endArrow=block;endFill=1;exitX=0.5;exitY=1;exitPerimeter=0;entryX=0.5;entryY=0;entryPerimeter=0;lucidId=d3r.K~Esj8vI;" parent="1" source="ZhJgSsFKiW_KJ7nUg3D_-5" target="ZhJgSsFKiW_KJ7nUg3D_-7" edge="1">
          <mxGeometry width="100" height="100" relative="1" as="geometry">
            <Array as="points" />
          </mxGeometry>
        </mxCell>
        <mxCell id="ZhJgSsFKiW_KJ7nUg3D_-17" value="" style="html=1;jettySize=18;whiteSpace=wrap;fontSize=13;strokeOpacity=100;strokeWidth=0.8;rounded=1;arcSize=12;edgeStyle=orthogonalEdgeStyle;startArrow=none;endArrow=block;endFill=1;exitX=1;exitY=0.5;exitPerimeter=0;entryX=0.5;entryY=0;entryPerimeter=0;lucidId=g3r.V.70R1QK;" parent="1" source="ZhJgSsFKiW_KJ7nUg3D_-5" target="ZhJgSsFKiW_KJ7nUg3D_-8" edge="1">
          <mxGeometry width="100" height="100" relative="1" as="geometry">
            <Array as="points" />
          </mxGeometry>
        </mxCell>
        <mxCell id="ZhJgSsFKiW_KJ7nUg3D_-18" value="" style="html=1;jettySize=18;whiteSpace=wrap;fontSize=13;strokeOpacity=100;strokeWidth=0.8;rounded=1;arcSize=12;edgeStyle=orthogonalEdgeStyle;startArrow=none;endArrow=block;endFill=1;exitX=1;exitY=0.5;exitPerimeter=0;entryX=0.5;entryY=0;entryPerimeter=0;lucidId=o3r.FJRv.Jnu;" parent="1" source="ZhJgSsFKiW_KJ7nUg3D_-5" target="ZhJgSsFKiW_KJ7nUg3D_-10" edge="1">
          <mxGeometry width="100" height="100" relative="1" as="geometry">
            <Array as="points" />
          </mxGeometry>
        </mxCell>
        <mxCell id="ZhJgSsFKiW_KJ7nUg3D_-19" value="" style="html=1;jettySize=18;whiteSpace=wrap;fontSize=13;strokeOpacity=100;strokeWidth=0.8;rounded=1;arcSize=12;edgeStyle=orthogonalEdgeStyle;startArrow=none;endArrow=block;endFill=1;exitX=0;exitY=0.5;exitPerimeter=0;entryX=0.5;entryY=0;entryPerimeter=0;lucidId=w3r.RjUbXwI-;" parent="1" source="ZhJgSsFKiW_KJ7nUg3D_-4" target="ZhJgSsFKiW_KJ7nUg3D_-9" edge="1">
          <mxGeometry width="100" height="100" relative="1" as="geometry">
            <Array as="points" />
          </mxGeometry>
        </mxCell>
        <mxCell id="ZhJgSsFKiW_KJ7nUg3D_-20" value="" style="html=1;jettySize=18;whiteSpace=wrap;fontSize=13;strokeOpacity=100;strokeWidth=0.8;rounded=1;arcSize=12;edgeStyle=orthogonalEdgeStyle;startArrow=none;endArrow=block;endFill=1;exitX=0;exitY=0.5;exitPerimeter=0;entryX=0.5;entryY=0;entryPerimeter=0;lucidId=z3r.2UZ_smaq;" parent="1" source="ZhJgSsFKiW_KJ7nUg3D_-4" target="ZhJgSsFKiW_KJ7nUg3D_-11" edge="1">
          <mxGeometry width="100" height="100" relative="1" as="geometry">
            <Array as="points" />
          </mxGeometry>
        </mxCell>
        <mxCell id="ZhJgSsFKiW_KJ7nUg3D_-171" style="edgeStyle=orthogonalEdgeStyle;rounded=0;orthogonalLoop=1;jettySize=auto;html=1;exitX=0.5;exitY=1;exitDx=0;exitDy=0;" parent="1" source="ZhJgSsFKiW_KJ7nUg3D_-21" target="ZhJgSsFKiW_KJ7nUg3D_-170" edge="1">
          <mxGeometry relative="1" as="geometry" />
        </mxCell>
        <mxCell id="ZhJgSsFKiW_KJ7nUg3D_-21" value="Homepage" style="html=1;overflow=block;blockSpacing=1;whiteSpace=wrap;fontSize=16.7;spacing=3.8;strokeOpacity=100;rounded=1;absoluteArcSize=1;arcSize=9;strokeWidth=NaN;lucidId=M3r.Lungnlsa;fillColor=#60a917;fontColor=#ffffff;strokeColor=#2D7600;" parent="1" vertex="1">
          <mxGeometry x="-195" y="420" width="120" height="60" as="geometry" />
        </mxCell>
        <mxCell id="ZhJgSsFKiW_KJ7nUg3D_-22" value="" style="html=1;jettySize=18;whiteSpace=wrap;fontSize=13;strokeOpacity=100;strokeWidth=0.8;rounded=1;arcSize=12;edgeStyle=orthogonalEdgeStyle;startArrow=none;endArrow=block;endFill=1;exitX=0.5;exitY=1;exitPerimeter=0;entryX=0.5;entryY=0;entryPerimeter=0;lucidId=43r.LO0qyHyg;" parent="1" source="ZhJgSsFKiW_KJ7nUg3D_-7" target="ZhJgSsFKiW_KJ7nUg3D_-21" edge="1">
          <mxGeometry width="100" height="100" relative="1" as="geometry">
            <Array as="points" />
          </mxGeometry>
        </mxCell>
        <mxCell id="ZhJgSsFKiW_KJ7nUg3D_-23" value="" style="html=1;jettySize=18;whiteSpace=wrap;fontSize=13;strokeOpacity=100;strokeWidth=0.8;rounded=1;arcSize=12;edgeStyle=orthogonalEdgeStyle;startArrow=none;endArrow=block;endFill=1;exitX=0.5;exitY=1;exitPerimeter=0;entryX=0.5;entryY=0;entryPerimeter=0;lucidId=83r.3P~gyDVa;" parent="1" source="ZhJgSsFKiW_KJ7nUg3D_-8" target="ZhJgSsFKiW_KJ7nUg3D_-21" edge="1">
          <mxGeometry width="100" height="100" relative="1" as="geometry">
            <Array as="points" />
          </mxGeometry>
        </mxCell>
        <mxCell id="ZhJgSsFKiW_KJ7nUg3D_-24" value="" style="html=1;jettySize=18;whiteSpace=wrap;fontSize=13;strokeOpacity=100;strokeWidth=0.8;rounded=1;arcSize=12;edgeStyle=orthogonalEdgeStyle;startArrow=none;endArrow=block;endFill=1;exitX=0.5;exitY=1;exitPerimeter=0;entryX=0.5;entryY=0;entryPerimeter=0;lucidId=.3r.SZ36Yq2u;" parent="1" source="ZhJgSsFKiW_KJ7nUg3D_-10" target="ZhJgSsFKiW_KJ7nUg3D_-21" edge="1">
          <mxGeometry width="100" height="100" relative="1" as="geometry">
            <Array as="points" />
          </mxGeometry>
        </mxCell>
        <mxCell id="ZhJgSsFKiW_KJ7nUg3D_-25" value="" style="html=1;jettySize=18;whiteSpace=wrap;fontSize=13;strokeOpacity=100;strokeWidth=0.8;rounded=1;arcSize=12;edgeStyle=orthogonalEdgeStyle;startArrow=none;endArrow=block;endFill=1;exitX=0.5;exitY=1;exitPerimeter=0;entryX=0.5;entryY=0;entryPerimeter=0;lucidId=f4r.Jr3H-XQH;" parent="1" source="ZhJgSsFKiW_KJ7nUg3D_-6" target="ZhJgSsFKiW_KJ7nUg3D_-21" edge="1">
          <mxGeometry width="100" height="100" relative="1" as="geometry">
            <Array as="points" />
          </mxGeometry>
        </mxCell>
        <mxCell id="ZhJgSsFKiW_KJ7nUg3D_-26" value="" style="html=1;jettySize=18;whiteSpace=wrap;fontSize=13;strokeOpacity=100;strokeWidth=0.8;rounded=1;arcSize=12;edgeStyle=orthogonalEdgeStyle;startArrow=none;endArrow=block;endFill=1;exitX=0.5;exitY=1;exitPerimeter=0;entryX=0.5;entryY=0;entryPerimeter=0;lucidId=k4r.0NkX~t6t;" parent="1" source="ZhJgSsFKiW_KJ7nUg3D_-9" target="ZhJgSsFKiW_KJ7nUg3D_-21" edge="1">
          <mxGeometry width="100" height="100" relative="1" as="geometry">
            <Array as="points" />
          </mxGeometry>
        </mxCell>
        <mxCell id="ZhJgSsFKiW_KJ7nUg3D_-27" value="" style="html=1;jettySize=18;whiteSpace=wrap;fontSize=13;strokeOpacity=100;strokeWidth=0.8;rounded=1;arcSize=12;edgeStyle=orthogonalEdgeStyle;startArrow=none;endArrow=block;endFill=1;exitX=0.5;exitY=1;exitPerimeter=0;entryX=0.5;entryY=0;entryPerimeter=0;lucidId=q4r.HGM2lWGd;" parent="1" source="ZhJgSsFKiW_KJ7nUg3D_-11" target="ZhJgSsFKiW_KJ7nUg3D_-21" edge="1">
          <mxGeometry width="100" height="100" relative="1" as="geometry">
            <Array as="points" />
          </mxGeometry>
        </mxCell>
        <mxCell id="ZhJgSsFKiW_KJ7nUg3D_-187" style="edgeStyle=orthogonalEdgeStyle;rounded=0;orthogonalLoop=1;jettySize=auto;html=1;exitX=1;exitY=0.5;exitDx=0;exitDy=0;" parent="1" source="ZhJgSsFKiW_KJ7nUg3D_-28" target="ZhJgSsFKiW_KJ7nUg3D_-185" edge="1">
          <mxGeometry relative="1" as="geometry" />
        </mxCell>
        <mxCell id="ZhJgSsFKiW_KJ7nUg3D_-28" value="Design" style="html=1;overflow=block;blockSpacing=1;whiteSpace=wrap;fontSize=16.7;spacing=3.8;strokeOpacity=100;rounded=1;absoluteArcSize=1;arcSize=9;strokeWidth=NaN;lucidId=O4r.A2zRXuP1;" parent="1" vertex="1">
          <mxGeometry x="-10" y="420" width="120" height="60" as="geometry" />
        </mxCell>
        <mxCell id="ZhJgSsFKiW_KJ7nUg3D_-165" style="edgeStyle=orthogonalEdgeStyle;rounded=0;orthogonalLoop=1;jettySize=auto;html=1;exitX=0.5;exitY=1;exitDx=0;exitDy=0;" parent="1" source="ZhJgSsFKiW_KJ7nUg3D_-29" target="ZhJgSsFKiW_KJ7nUg3D_-164" edge="1">
          <mxGeometry relative="1" as="geometry" />
        </mxCell>
        <mxCell id="ZhJgSsFKiW_KJ7nUg3D_-169" style="edgeStyle=orthogonalEdgeStyle;rounded=0;orthogonalLoop=1;jettySize=auto;html=1;exitX=0.5;exitY=1;exitDx=0;exitDy=0;" parent="1" source="ZhJgSsFKiW_KJ7nUg3D_-29" target="ZhJgSsFKiW_KJ7nUg3D_-88" edge="1">
          <mxGeometry relative="1" as="geometry" />
        </mxCell>
        <mxCell id="ZhJgSsFKiW_KJ7nUg3D_-29" value="Features" style="html=1;overflow=block;blockSpacing=1;whiteSpace=wrap;fontSize=16.7;spacing=3.8;strokeOpacity=100;rounded=1;absoluteArcSize=1;arcSize=9;strokeWidth=NaN;lucidId=e5r.yDB6r1Se;" parent="1" vertex="1">
          <mxGeometry x="-365" y="420" width="120" height="60" as="geometry" />
        </mxCell>
        <mxCell id="ZhJgSsFKiW_KJ7nUg3D_-30" value="" style="html=1;jettySize=18;whiteSpace=wrap;fontSize=13;strokeOpacity=100;strokeWidth=0.8;rounded=1;arcSize=12;edgeStyle=orthogonalEdgeStyle;startArrow=none;endArrow=block;endFill=1;exitX=1.006;exitY=0.5;exitPerimeter=0;entryX=-0.006;entryY=0.5;entryPerimeter=0;lucidId=r5r.PqObfUYs;" parent="1" source="ZhJgSsFKiW_KJ7nUg3D_-21" target="ZhJgSsFKiW_KJ7nUg3D_-28" edge="1">
          <mxGeometry width="100" height="100" relative="1" as="geometry">
            <Array as="points" />
          </mxGeometry>
        </mxCell>
        <mxCell id="ZhJgSsFKiW_KJ7nUg3D_-31" value="" style="html=1;jettySize=18;whiteSpace=wrap;fontSize=13;strokeOpacity=100;strokeWidth=0.8;rounded=1;arcSize=12;edgeStyle=orthogonalEdgeStyle;startArrow=none;endArrow=block;endFill=1;exitX=-0.006;exitY=0.5;exitPerimeter=0;entryX=1.006;entryY=0.5;entryPerimeter=0;lucidId=D5r.3NtEU8dy;" parent="1" source="ZhJgSsFKiW_KJ7nUg3D_-21" target="ZhJgSsFKiW_KJ7nUg3D_-29" edge="1">
          <mxGeometry width="100" height="100" relative="1" as="geometry">
            <Array as="points" />
          </mxGeometry>
        </mxCell>
        <mxCell id="ZhJgSsFKiW_KJ7nUg3D_-32" value="Floating pink, yellow, and teal crystal" style="html=1;overflow=block;blockSpacing=1;whiteSpace=wrap;fontSize=16.7;spacing=3.8;strokeOpacity=100;rounded=1;absoluteArcSize=1;arcSize=9;strokeWidth=NaN;lucidId=66r.K5CRntfq;" parent="1" vertex="1">
          <mxGeometry x="-10" y="502" width="120" height="76" as="geometry" />
        </mxCell>
        <mxCell id="ZhJgSsFKiW_KJ7nUg3D_-33" value="" style="html=1;jettySize=18;whiteSpace=wrap;fontSize=13;strokeOpacity=100;strokeWidth=0.8;rounded=1;arcSize=12;edgeStyle=orthogonalEdgeStyle;startArrow=none;endArrow=block;endFill=1;exitX=0.5;exitY=1;exitPerimeter=0;entryX=0.5;entryY=0;entryPerimeter=0;lucidId=z7r.fEPvPH~0;" parent="1" source="ZhJgSsFKiW_KJ7nUg3D_-28" target="ZhJgSsFKiW_KJ7nUg3D_-32" edge="1">
          <mxGeometry width="100" height="100" relative="1" as="geometry">
            <Array as="points" />
          </mxGeometry>
        </mxCell>
        <mxCell id="ZhJgSsFKiW_KJ7nUg3D_-34" value="" style="html=1;overflow=block;blockSpacing=1;whiteSpace=wrap;shape=image;fontSize=13;spacing=0;strokeOpacity=100;rounded=1;absoluteArcSize=1;arcSize=9;strokeWidth=0;image=https://images.lucid.app/images/8c98d927-d123-455c-9840-f5d52f04698b/content;imageAspect=0;lucidId=87r.VvQr.~jH;" parent="1" vertex="1">
          <mxGeometry x="170" y="448" width="130" height="130" as="geometry" />
        </mxCell>
        <mxCell id="ZhJgSsFKiW_KJ7nUg3D_-35" value="" style="html=1;jettySize=18;whiteSpace=wrap;fontSize=13;strokeOpacity=100;strokeWidth=0.8;rounded=1;arcSize=12;edgeStyle=orthogonalEdgeStyle;startArrow=none;endArrow=block;endFill=1;exitX=1;exitY=0.5;exitPerimeter=0;entryX=0;entryY=0.5;entryPerimeter=0;lucidId=k8r.l0ETUHK4;" parent="1" source="ZhJgSsFKiW_KJ7nUg3D_-32" target="ZhJgSsFKiW_KJ7nUg3D_-34" edge="1">
          <mxGeometry width="100" height="100" relative="1" as="geometry">
            <Array as="points" />
          </mxGeometry>
        </mxCell>
        <mxCell id="ZhJgSsFKiW_KJ7nUg3D_-79" style="edgeStyle=orthogonalEdgeStyle;rounded=0;orthogonalLoop=1;jettySize=auto;html=1;exitX=1;exitY=0.5;exitDx=0;exitDy=0;entryX=0.5;entryY=0;entryDx=0;entryDy=0;" parent="1" source="ZhJgSsFKiW_KJ7nUg3D_-36" target="ZhJgSsFKiW_KJ7nUg3D_-77" edge="1">
          <mxGeometry relative="1" as="geometry" />
        </mxCell>
        <mxCell id="ZhJgSsFKiW_KJ7nUg3D_-184" style="edgeStyle=orthogonalEdgeStyle;rounded=0;orthogonalLoop=1;jettySize=auto;html=1;exitX=1;exitY=0.5;exitDx=0;exitDy=0;entryX=0.5;entryY=0;entryDx=0;entryDy=0;" parent="1" source="ZhJgSsFKiW_KJ7nUg3D_-36" target="ZhJgSsFKiW_KJ7nUg3D_-175" edge="1">
          <mxGeometry relative="1" as="geometry" />
        </mxCell>
        <mxCell id="ZhJgSsFKiW_KJ7nUg3D_-36" value="Your AI Duplicate" style="html=1;overflow=block;blockSpacing=1;whiteSpace=wrap;fontSize=16.7;spacing=3.8;strokeOpacity=100;fillOpacity=100;rounded=1;absoluteArcSize=1;arcSize=9;strokeWidth=1.5;lucidId=w8r.vIwHxzrs;fillColor=light-dark(#00FFFB,#EDEDED);" parent="1" vertex="1">
          <mxGeometry x="-650" y="600" width="120" height="60" as="geometry" />
        </mxCell>
        <mxCell id="ZhJgSsFKiW_KJ7nUg3D_-37" value="" style="html=1;jettySize=18;whiteSpace=wrap;fontSize=13;strokeOpacity=100;strokeWidth=0.8;rounded=1;arcSize=12;edgeStyle=orthogonalEdgeStyle;startArrow=none;endArrow=block;endFill=1;exitX=0.5;exitY=1.013;exitPerimeter=0;entryX=0.5;entryY=-0.013;entryPerimeter=0;lucidId=58r.6LpceAc~;" parent="1" source="ZhJgSsFKiW_KJ7nUg3D_-29" target="ZhJgSsFKiW_KJ7nUg3D_-36" edge="1">
          <mxGeometry width="100" height="100" relative="1" as="geometry">
            <Array as="points" />
          </mxGeometry>
        </mxCell>
        <mxCell id="ZhJgSsFKiW_KJ7nUg3D_-85" style="edgeStyle=orthogonalEdgeStyle;rounded=0;orthogonalLoop=1;jettySize=auto;html=1;exitX=1;exitY=0.5;exitDx=0;exitDy=0;entryX=0;entryY=0.5;entryDx=0;entryDy=0;" parent="1" source="ZhJgSsFKiW_KJ7nUg3D_-38" target="ZhJgSsFKiW_KJ7nUg3D_-3" edge="1">
          <mxGeometry relative="1" as="geometry" />
        </mxCell>
        <mxCell id="ZhJgSsFKiW_KJ7nUg3D_-38" value="Unique Accounts" style="html=1;overflow=block;blockSpacing=1;whiteSpace=wrap;fontSize=16.7;spacing=3.8;strokeOpacity=100;rounded=1;absoluteArcSize=1;arcSize=9;strokeWidth=NaN;lucidId=u9r.ndrqbI9W;" parent="1" vertex="1">
          <mxGeometry x="-420" y="90" width="120" height="60" as="geometry" />
        </mxCell>
        <mxCell id="ZhJgSsFKiW_KJ7nUg3D_-39" value="" style="html=1;jettySize=18;whiteSpace=wrap;fontSize=13;strokeOpacity=100;strokeWidth=0.8;rounded=1;arcSize=12;edgeStyle=orthogonalEdgeStyle;startArrow=none;endArrow=block;endFill=1;exitX=1.006;exitY=0.5;exitPerimeter=0;entryX=-0.006;entryY=0.5;entryPerimeter=0;lucidId=M9r.GPMZwATz;" parent="1" source="ZhJgSsFKiW_KJ7nUg3D_-36" target="ZhJgSsFKiW_KJ7nUg3D_-38" edge="1">
          <mxGeometry width="100" height="100" relative="1" as="geometry">
            <Array as="points" />
          </mxGeometry>
        </mxCell>
        <mxCell id="ZhJgSsFKiW_KJ7nUg3D_-41" value="On screen Reading" style="html=1;overflow=block;blockSpacing=1;whiteSpace=wrap;fontSize=16.7;spacing=3.8;strokeOpacity=100;rounded=1;absoluteArcSize=1;arcSize=9;strokeWidth=NaN;lucidId=g-r._Ewaite.;" parent="1" vertex="1">
          <mxGeometry x="-485" y="689" width="120" height="60" as="geometry" />
        </mxCell>
        <mxCell id="ZhJgSsFKiW_KJ7nUg3D_-42" value="" style="html=1;jettySize=18;whiteSpace=wrap;fontSize=13;strokeOpacity=100;strokeWidth=0.8;rounded=1;arcSize=12;edgeStyle=orthogonalEdgeStyle;startArrow=none;endArrow=block;endFill=1;exitX=0.5;exitY=1.013;exitPerimeter=0;entryX=0.5;entryY=-0.013;entryPerimeter=0;lucidId=q-r.rpWUjY8F;" parent="1" source="ZhJgSsFKiW_KJ7nUg3D_-29" target="ZhJgSsFKiW_KJ7nUg3D_-41" edge="1">
          <mxGeometry width="100" height="100" relative="1" as="geometry">
            <Array as="points" />
          </mxGeometry>
        </mxCell>
        <mxCell id="ZhJgSsFKiW_KJ7nUg3D_-179" style="edgeStyle=orthogonalEdgeStyle;rounded=0;orthogonalLoop=1;jettySize=auto;html=1;exitX=0.5;exitY=1;exitDx=0;exitDy=0;entryX=0.5;entryY=0;entryDx=0;entryDy=0;" parent="1" source="ZhJgSsFKiW_KJ7nUg3D_-43" target="ZhJgSsFKiW_KJ7nUg3D_-178" edge="1">
          <mxGeometry relative="1" as="geometry" />
        </mxCell>
        <mxCell id="ZhJgSsFKiW_KJ7nUg3D_-43" value="Keyboard Logging" style="html=1;overflow=block;blockSpacing=1;whiteSpace=wrap;fontSize=16.7;spacing=3.8;strokeOpacity=100;rounded=1;absoluteArcSize=1;arcSize=9;strokeWidth=NaN;lucidId=G-r.tUYb5rVQ;" parent="1" vertex="1">
          <mxGeometry x="-640" y="832" width="120" height="60" as="geometry" />
        </mxCell>
        <mxCell id="ZhJgSsFKiW_KJ7nUg3D_-44" value="" style="html=1;jettySize=18;whiteSpace=wrap;fontSize=13;strokeOpacity=100;strokeWidth=0.8;rounded=1;arcSize=12;edgeStyle=orthogonalEdgeStyle;startArrow=none;endArrow=block;endFill=1;exitX=0.5;exitY=1.013;exitPerimeter=0;entryX=0.5;entryY=-0.013;entryPerimeter=0;lucidId=U-r.qXrmZ85Y;" parent="1" source="ZhJgSsFKiW_KJ7nUg3D_-41" target="ZhJgSsFKiW_KJ7nUg3D_-43" edge="1">
          <mxGeometry width="100" height="100" relative="1" as="geometry">
            <Array as="points" />
          </mxGeometry>
        </mxCell>
        <mxCell id="ZhJgSsFKiW_KJ7nUg3D_-45" value="Mouse position logging" style="html=1;overflow=block;blockSpacing=1;whiteSpace=wrap;fontSize=16.7;spacing=3.8;strokeOpacity=100;rounded=1;absoluteArcSize=1;arcSize=9;strokeWidth=NaN;lucidId=2-r.qW-wwTUj;" parent="1" vertex="1">
          <mxGeometry x="-455" y="824" width="120" height="76" as="geometry" />
        </mxCell>
        <mxCell id="ZhJgSsFKiW_KJ7nUg3D_-46" value="" style="html=1;jettySize=18;whiteSpace=wrap;fontSize=13;strokeOpacity=100;strokeWidth=0.8;rounded=1;arcSize=12;edgeStyle=orthogonalEdgeStyle;startArrow=none;endArrow=block;endFill=1;exitX=0.5;exitY=1.013;exitPerimeter=0;entryX=0.5;entryY=-0.01;entryPerimeter=0;lucidId=h.r.sDp8y9gp;" parent="1" source="ZhJgSsFKiW_KJ7nUg3D_-41" target="ZhJgSsFKiW_KJ7nUg3D_-45" edge="1">
          <mxGeometry width="100" height="100" relative="1" as="geometry">
            <Array as="points" />
          </mxGeometry>
        </mxCell>
        <mxCell id="ZhJgSsFKiW_KJ7nUg3D_-47" value="" style="html=1;jettySize=18;whiteSpace=wrap;fontSize=13;strokeOpacity=100;strokeWidth=0.8;rounded=1;arcSize=12;edgeStyle=orthogonalEdgeStyle;startArrow=none;endArrow=block;endFill=1;exitX=1;exitY=0.5;exitPerimeter=0;entryX=0;entryY=0.65;entryPerimeter=0;lucidId=~.r.Q_mXtyZH;" parent="1" source="ZhJgSsFKiW_KJ7nUg3D_-45" target="ZhJgSsFKiW_KJ7nUg3D_-36" edge="1">
          <mxGeometry width="100" height="100" relative="1" as="geometry">
            <Array as="points" />
          </mxGeometry>
        </mxCell>
        <mxCell id="ZhJgSsFKiW_KJ7nUg3D_-48" value="" style="html=1;jettySize=18;whiteSpace=wrap;fontSize=13;strokeOpacity=100;strokeWidth=0.8;rounded=1;arcSize=12;edgeStyle=orthogonalEdgeStyle;startArrow=none;endArrow=block;endFill=1;exitX=1;exitY=0.5;exitPerimeter=0;lucidId=f~r.dWFP0u_n;" parent="1" source="ZhJgSsFKiW_KJ7nUg3D_-43" target="ZhJgSsFKiW_KJ7nUg3D_-36" edge="1">
          <mxGeometry width="100" height="100" relative="1" as="geometry">
            <Array as="points" />
            <mxPoint x="-305" y="710" as="targetPoint" />
          </mxGeometry>
        </mxCell>
        <mxCell id="ZhJgSsFKiW_KJ7nUg3D_-49" value="Stars" style="html=1;overflow=block;blockSpacing=1;whiteSpace=wrap;fontSize=16.7;spacing=3.8;strokeOpacity=100;rounded=1;absoluteArcSize=1;arcSize=9;strokeWidth=NaN;lucidId=sbs.VtsCT.Hn;fillColor=#FFFFAD;" parent="1" vertex="1">
          <mxGeometry x="-1350" y="-90" width="120" height="60" as="geometry" />
        </mxCell>
        <mxCell id="ZhJgSsFKiW_KJ7nUg3D_-50" value="" style="html=1;jettySize=18;whiteSpace=wrap;fontSize=13;strokeOpacity=100;strokeWidth=0.8;rounded=1;arcSize=12;edgeStyle=orthogonalEdgeStyle;startArrow=none;endArrow=block;endFill=1;exitX=0;exitY=0.5;exitPerimeter=0;entryX=0.5;entryY=0;entryPerimeter=0;lucidId=ncs.vaE24VzP;" parent="1" source="ZhJgSsFKiW_KJ7nUg3D_-29" target="ZhJgSsFKiW_KJ7nUg3D_-49" edge="1">
          <mxGeometry width="100" height="100" relative="1" as="geometry">
            <Array as="points" />
          </mxGeometry>
        </mxCell>
        <mxCell id="ZhJgSsFKiW_KJ7nUg3D_-51" value="Live Audio Listening" style="html=1;overflow=block;blockSpacing=1;whiteSpace=wrap;fontSize=16.7;spacing=3.8;strokeOpacity=100;rounded=1;absoluteArcSize=1;arcSize=9;strokeWidth=NaN;lucidId=tcs.ftObv.gs;" parent="1" vertex="1">
          <mxGeometry x="-1820" y="170" width="120" height="60" as="geometry" />
        </mxCell>
        <mxCell id="ZhJgSsFKiW_KJ7nUg3D_-63" style="edgeStyle=orthogonalEdgeStyle;rounded=0;orthogonalLoop=1;jettySize=auto;html=1;exitX=0.5;exitY=1;exitDx=0;exitDy=0;entryX=0.5;entryY=0;entryDx=0;entryDy=0;" parent="1" source="ZhJgSsFKiW_KJ7nUg3D_-52" target="ZhJgSsFKiW_KJ7nUg3D_-51" edge="1">
          <mxGeometry relative="1" as="geometry" />
        </mxCell>
        <mxCell id="ZhJgSsFKiW_KJ7nUg3D_-71" style="edgeStyle=orthogonalEdgeStyle;rounded=0;orthogonalLoop=1;jettySize=auto;html=1;exitX=0.5;exitY=1;exitDx=0;exitDy=0;entryX=0.5;entryY=1;entryDx=0;entryDy=0;" parent="1" source="ZhJgSsFKiW_KJ7nUg3D_-52" target="ZhJgSsFKiW_KJ7nUg3D_-55" edge="1">
          <mxGeometry relative="1" as="geometry" />
        </mxCell>
        <mxCell id="ZhJgSsFKiW_KJ7nUg3D_-52" value="Mic" style="html=1;overflow=block;blockSpacing=1;whiteSpace=wrap;fontSize=16.7;spacing=3.8;strokeOpacity=100;rounded=1;absoluteArcSize=1;arcSize=9;strokeWidth=NaN;lucidId=Scs.uPbKRGcg;" parent="1" vertex="1">
          <mxGeometry x="-1560" y="68" width="120" height="60" as="geometry" />
        </mxCell>
        <mxCell id="ZhJgSsFKiW_KJ7nUg3D_-75" style="edgeStyle=orthogonalEdgeStyle;rounded=0;orthogonalLoop=1;jettySize=auto;html=1;exitX=0.5;exitY=1;exitDx=0;exitDy=0;entryX=0.5;entryY=1;entryDx=0;entryDy=0;" parent="1" source="ZhJgSsFKiW_KJ7nUg3D_-53" target="ZhJgSsFKiW_KJ7nUg3D_-55" edge="1">
          <mxGeometry relative="1" as="geometry">
            <mxPoint x="-1230" y="60" as="targetPoint" />
          </mxGeometry>
        </mxCell>
        <mxCell id="ZhJgSsFKiW_KJ7nUg3D_-53" value="Temperature Logging" style="html=1;overflow=block;blockSpacing=1;whiteSpace=wrap;fontSize=16.7;spacing=3.8;strokeOpacity=100;rounded=1;absoluteArcSize=1;arcSize=9;strokeWidth=NaN;lucidId=0cs.7Zl-fodu;" parent="1" vertex="1">
          <mxGeometry x="-1850" y="430" width="120" height="60" as="geometry" />
        </mxCell>
        <mxCell id="ZhJgSsFKiW_KJ7nUg3D_-64" style="edgeStyle=orthogonalEdgeStyle;rounded=0;orthogonalLoop=1;jettySize=auto;html=1;exitX=0.5;exitY=1;exitDx=0;exitDy=0;entryX=0.5;entryY=0;entryDx=0;entryDy=0;" parent="1" source="ZhJgSsFKiW_KJ7nUg3D_-54" target="ZhJgSsFKiW_KJ7nUg3D_-53" edge="1">
          <mxGeometry relative="1" as="geometry" />
        </mxCell>
        <mxCell id="ZhJgSsFKiW_KJ7nUg3D_-65" style="edgeStyle=orthogonalEdgeStyle;rounded=0;orthogonalLoop=1;jettySize=auto;html=1;exitX=0.5;exitY=1;exitDx=0;exitDy=0;entryX=0.5;entryY=0;entryDx=0;entryDy=0;" parent="1" source="ZhJgSsFKiW_KJ7nUg3D_-54" target="ZhJgSsFKiW_KJ7nUg3D_-59" edge="1">
          <mxGeometry relative="1" as="geometry" />
        </mxCell>
        <mxCell id="ZhJgSsFKiW_KJ7nUg3D_-66" style="edgeStyle=orthogonalEdgeStyle;rounded=0;orthogonalLoop=1;jettySize=auto;html=1;exitX=0.5;exitY=1;exitDx=0;exitDy=0;entryX=0.5;entryY=0;entryDx=0;entryDy=0;" parent="1" source="ZhJgSsFKiW_KJ7nUg3D_-54" target="ZhJgSsFKiW_KJ7nUg3D_-60" edge="1">
          <mxGeometry relative="1" as="geometry" />
        </mxCell>
        <mxCell id="ZhJgSsFKiW_KJ7nUg3D_-54" value="Observation Mode" style="html=1;overflow=block;blockSpacing=1;whiteSpace=wrap;fontSize=16.7;spacing=3.8;strokeOpacity=100;rounded=1;absoluteArcSize=1;arcSize=9;strokeWidth=NaN;lucidId=ods.2cwcyVEZ;" parent="1" vertex="1">
          <mxGeometry x="-1425" y="-11" width="120" height="60" as="geometry" />
        </mxCell>
        <mxCell id="ZhJgSsFKiW_KJ7nUg3D_-213" style="edgeStyle=orthogonalEdgeStyle;rounded=0;orthogonalLoop=1;jettySize=auto;html=1;exitX=1;exitY=0.5;exitDx=0;exitDy=0;entryX=1;entryY=0.5;entryDx=0;entryDy=0;" parent="1" source="ZhJgSsFKiW_KJ7nUg3D_-55" target="ZhJgSsFKiW_KJ7nUg3D_-77" edge="1">
          <mxGeometry relative="1" as="geometry" />
        </mxCell>
        <mxCell id="ZhJgSsFKiW_KJ7nUg3D_-55" value="Server Upload" style="html=1;overflow=block;blockSpacing=1;whiteSpace=wrap;fontSize=16.7;spacing=3.8;strokeOpacity=100;rounded=1;absoluteArcSize=1;arcSize=9;strokeWidth=NaN;lucidId=Cds.Z0fUdR8V;" parent="1" vertex="1">
          <mxGeometry x="-1260" y="-8" width="120" height="60" as="geometry" />
        </mxCell>
        <mxCell id="ZhJgSsFKiW_KJ7nUg3D_-56" value="" style="html=1;jettySize=18;whiteSpace=wrap;fontSize=13;strokeOpacity=100;strokeWidth=0.8;rounded=1;arcSize=12;edgeStyle=orthogonalEdgeStyle;startArrow=none;endArrow=block;endFill=1;exitX=0.5;exitY=1;exitPerimeter=0;entryX=0.5;entryY=0;entryPerimeter=0;lucidId=Xds.~S~bnBHj;" parent="1" source="ZhJgSsFKiW_KJ7nUg3D_-49" target="ZhJgSsFKiW_KJ7nUg3D_-54" edge="1">
          <mxGeometry width="100" height="100" relative="1" as="geometry">
            <Array as="points" />
          </mxGeometry>
        </mxCell>
        <mxCell id="ZhJgSsFKiW_KJ7nUg3D_-57" value="" style="html=1;jettySize=18;whiteSpace=wrap;fontSize=13;strokeOpacity=100;strokeWidth=0.8;rounded=1;arcSize=12;edgeStyle=orthogonalEdgeStyle;startArrow=none;endArrow=block;endFill=1;exitX=0.5;exitY=1;exitPerimeter=0;entryX=0.5;entryY=0;entryPerimeter=0;lucidId=5ds.9CDroaL4;" parent="1" source="ZhJgSsFKiW_KJ7nUg3D_-49" target="ZhJgSsFKiW_KJ7nUg3D_-55" edge="1">
          <mxGeometry width="100" height="100" relative="1" as="geometry">
            <Array as="points" />
          </mxGeometry>
        </mxCell>
        <mxCell id="ZhJgSsFKiW_KJ7nUg3D_-58" value="" style="html=1;jettySize=18;whiteSpace=wrap;fontSize=13;strokeOpacity=100;strokeWidth=0.8;rounded=1;arcSize=12;edgeStyle=orthogonalEdgeStyle;startArrow=none;endArrow=block;endFill=1;exitX=0.5;exitY=1;exitPerimeter=0;entryX=0.5;entryY=0;entryPerimeter=0;lucidId=.ds.lbcDaA36;" parent="1" source="ZhJgSsFKiW_KJ7nUg3D_-54" target="ZhJgSsFKiW_KJ7nUg3D_-52" edge="1">
          <mxGeometry width="100" height="100" relative="1" as="geometry">
            <Array as="points" />
          </mxGeometry>
        </mxCell>
        <mxCell id="ZhJgSsFKiW_KJ7nUg3D_-74" style="edgeStyle=orthogonalEdgeStyle;rounded=0;orthogonalLoop=1;jettySize=auto;html=1;exitX=0.5;exitY=1;exitDx=0;exitDy=0;entryX=0.5;entryY=1;entryDx=0;entryDy=0;" parent="1" source="ZhJgSsFKiW_KJ7nUg3D_-59" target="ZhJgSsFKiW_KJ7nUg3D_-55" edge="1">
          <mxGeometry relative="1" as="geometry">
            <mxPoint x="-1230" y="60" as="targetPoint" />
          </mxGeometry>
        </mxCell>
        <mxCell id="ZhJgSsFKiW_KJ7nUg3D_-59" value="Humidity" style="html=1;overflow=block;blockSpacing=1;whiteSpace=wrap;fontSize=16.7;spacing=3.8;strokeOpacity=100;rounded=1;absoluteArcSize=1;arcSize=9;strokeWidth=NaN;lucidId=1es.EHK5PTMd;" parent="1" vertex="1">
          <mxGeometry x="-1715" y="430" width="120" height="60" as="geometry" />
        </mxCell>
        <mxCell id="ZhJgSsFKiW_KJ7nUg3D_-73" style="edgeStyle=orthogonalEdgeStyle;rounded=0;orthogonalLoop=1;jettySize=auto;html=1;exitX=0.5;exitY=1;exitDx=0;exitDy=0;entryX=0.5;entryY=1;entryDx=0;entryDy=0;" parent="1" source="ZhJgSsFKiW_KJ7nUg3D_-60" target="ZhJgSsFKiW_KJ7nUg3D_-55" edge="1">
          <mxGeometry relative="1" as="geometry">
            <mxPoint x="-1230" y="60" as="targetPoint" />
          </mxGeometry>
        </mxCell>
        <mxCell id="ZhJgSsFKiW_KJ7nUg3D_-60" value="Elevation" style="html=1;overflow=block;blockSpacing=1;whiteSpace=wrap;fontSize=16.7;spacing=3.8;strokeOpacity=100;rounded=1;absoluteArcSize=1;arcSize=9;strokeWidth=NaN;lucidId=8es.H76~d6CC;" parent="1" vertex="1">
          <mxGeometry x="-1580" y="430" width="120" height="60" as="geometry" />
        </mxCell>
        <mxCell id="ZhJgSsFKiW_KJ7nUg3D_-72" style="edgeStyle=orthogonalEdgeStyle;rounded=0;orthogonalLoop=1;jettySize=auto;html=1;exitX=0.5;exitY=1;exitDx=0;exitDy=0;entryX=0.5;entryY=1;entryDx=0;entryDy=0;" parent="1" source="ZhJgSsFKiW_KJ7nUg3D_-61" target="ZhJgSsFKiW_KJ7nUg3D_-55" edge="1">
          <mxGeometry relative="1" as="geometry">
            <mxPoint x="-1230" y="50" as="targetPoint" />
          </mxGeometry>
        </mxCell>
        <mxCell id="ZhJgSsFKiW_KJ7nUg3D_-61" value="Location" style="html=1;overflow=block;blockSpacing=1;whiteSpace=wrap;fontSize=16.7;spacing=3.8;strokeOpacity=100;rounded=1;absoluteArcSize=1;arcSize=9;strokeWidth=NaN;lucidId=dfs.pXnbNMd1;" parent="1" vertex="1">
          <mxGeometry x="-1445" y="430" width="120" height="60" as="geometry" />
        </mxCell>
        <mxCell id="ZhJgSsFKiW_KJ7nUg3D_-67" style="edgeStyle=orthogonalEdgeStyle;rounded=0;orthogonalLoop=1;jettySize=auto;html=1;exitX=0.5;exitY=1;exitDx=0;exitDy=0;entryX=0.572;entryY=0.048;entryDx=0;entryDy=0;entryPerimeter=0;" parent="1" source="ZhJgSsFKiW_KJ7nUg3D_-54" target="ZhJgSsFKiW_KJ7nUg3D_-61" edge="1">
          <mxGeometry relative="1" as="geometry" />
        </mxCell>
        <mxCell id="ZhJgSsFKiW_KJ7nUg3D_-68" value="&lt;div&gt;Voice Recognition&lt;/div&gt;" style="rounded=1;whiteSpace=wrap;html=1;" parent="1" vertex="1">
          <mxGeometry x="-2470" y="150" width="120" height="60" as="geometry" />
        </mxCell>
        <mxCell id="ZhJgSsFKiW_KJ7nUg3D_-92" value="" style="edgeStyle=orthogonalEdgeStyle;rounded=0;orthogonalLoop=1;jettySize=auto;html=1;" parent="1" source="ZhJgSsFKiW_KJ7nUg3D_-77" target="ZhJgSsFKiW_KJ7nUg3D_-91" edge="1">
          <mxGeometry relative="1" as="geometry" />
        </mxCell>
        <mxCell id="ZhJgSsFKiW_KJ7nUg3D_-163" style="edgeStyle=orthogonalEdgeStyle;rounded=0;orthogonalLoop=1;jettySize=auto;html=1;exitX=1;exitY=0.5;exitDx=0;exitDy=0;entryX=0.5;entryY=0;entryDx=0;entryDy=0;" parent="1" source="ZhJgSsFKiW_KJ7nUg3D_-77" target="ZhJgSsFKiW_KJ7nUg3D_-29" edge="1">
          <mxGeometry relative="1" as="geometry" />
        </mxCell>
        <mxCell id="ZhJgSsFKiW_KJ7nUg3D_-77" value="Starlight Server" style="ellipse;whiteSpace=wrap;html=1;fillColor=light-dark(#00FFFB,#EDEDED);" parent="1" vertex="1">
          <mxGeometry x="-2470" y="-170" width="120" height="80" as="geometry" />
        </mxCell>
        <mxCell id="ZhJgSsFKiW_KJ7nUg3D_-88" value="Self Teaching/ Self Learning" style="rounded=1;whiteSpace=wrap;html=1;fillColor=#FF9999;" parent="1" vertex="1">
          <mxGeometry x="-170" y="689" width="120" height="60" as="geometry" />
        </mxCell>
        <mxCell id="ZhJgSsFKiW_KJ7nUg3D_-94" style="edgeStyle=orthogonalEdgeStyle;rounded=0;orthogonalLoop=1;jettySize=auto;html=1;exitX=0.5;exitY=1;exitDx=0;exitDy=0;entryX=0.5;entryY=0;entryDx=0;entryDy=0;" parent="1" source="ZhJgSsFKiW_KJ7nUg3D_-91" target="ZhJgSsFKiW_KJ7nUg3D_-68" edge="1">
          <mxGeometry relative="1" as="geometry" />
        </mxCell>
        <mxCell id="ZhJgSsFKiW_KJ7nUg3D_-91" value="&lt;div&gt;Features&lt;/div&gt;" style="rounded=1;whiteSpace=wrap;html=1;" parent="1" vertex="1">
          <mxGeometry x="-2470" y="-30" width="120" height="60" as="geometry" />
        </mxCell>
        <mxCell id="ZhJgSsFKiW_KJ7nUg3D_-96" style="edgeStyle=orthogonalEdgeStyle;rounded=0;orthogonalLoop=1;jettySize=auto;html=1;exitX=1;exitY=0.5;exitDx=0;exitDy=0;entryX=0;entryY=0.5;entryDx=0;entryDy=0;" parent="1" source="ZhJgSsFKiW_KJ7nUg3D_-95" target="ZhJgSsFKiW_KJ7nUg3D_-49" edge="1">
          <mxGeometry relative="1" as="geometry" />
        </mxCell>
        <mxCell id="ZhJgSsFKiW_KJ7nUg3D_-95" value="Wifi Access" style="rounded=1;whiteSpace=wrap;html=1;" parent="1" vertex="1">
          <mxGeometry x="-1570" y="-90" width="120" height="60" as="geometry" />
        </mxCell>
        <mxCell id="ZhJgSsFKiW_KJ7nUg3D_-98" value="" style="edgeStyle=orthogonalEdgeStyle;rounded=0;orthogonalLoop=1;jettySize=auto;html=1;" parent="1" source="ZhJgSsFKiW_KJ7nUg3D_-97" target="ZhJgSsFKiW_KJ7nUg3D_-95" edge="1">
          <mxGeometry relative="1" as="geometry" />
        </mxCell>
        <mxCell id="ZhJgSsFKiW_KJ7nUg3D_-97" value="Capture Pwns Handshakes" style="rounded=1;whiteSpace=wrap;html=1;" parent="1" vertex="1">
          <mxGeometry x="-1770" y="-90" width="120" height="60" as="geometry" />
        </mxCell>
        <mxCell id="ZhJgSsFKiW_KJ7nUg3D_-282" style="edgeStyle=orthogonalEdgeStyle;rounded=0;orthogonalLoop=1;jettySize=auto;html=1;exitX=0.5;exitY=1;exitDx=0;exitDy=0;entryX=0.5;entryY=0;entryDx=0;entryDy=0;" parent="1" source="ZhJgSsFKiW_KJ7nUg3D_-99" target="ZhJgSsFKiW_KJ7nUg3D_-281" edge="1">
          <mxGeometry relative="1" as="geometry" />
        </mxCell>
        <mxCell id="ZhJgSsFKiW_KJ7nUg3D_-99" value="&lt;div&gt;Personal Ai Chatbot&lt;/div&gt;" style="rounded=1;whiteSpace=wrap;html=1;fillColor=#60a917;fontColor=#ffffff;strokeColor=#2D7600;" parent="1" vertex="1">
          <mxGeometry x="-315" y="689" width="120" height="60" as="geometry" />
        </mxCell>
        <mxCell id="ZhJgSsFKiW_KJ7nUg3D_-100" style="edgeStyle=orthogonalEdgeStyle;rounded=0;orthogonalLoop=1;jettySize=auto;html=1;exitX=0.5;exitY=1;exitDx=0;exitDy=0;entryX=0.083;entryY=0.017;entryDx=0;entryDy=0;entryPerimeter=0;" parent="1" source="ZhJgSsFKiW_KJ7nUg3D_-29" target="ZhJgSsFKiW_KJ7nUg3D_-99" edge="1">
          <mxGeometry relative="1" as="geometry" />
        </mxCell>
        <mxCell id="ZhJgSsFKiW_KJ7nUg3D_-103" style="edgeStyle=orthogonalEdgeStyle;rounded=0;orthogonalLoop=1;jettySize=auto;html=1;exitX=0.5;exitY=1;exitDx=0;exitDy=0;" parent="1" source="ZhJgSsFKiW_KJ7nUg3D_-101" target="ZhJgSsFKiW_KJ7nUg3D_-102" edge="1">
          <mxGeometry relative="1" as="geometry" />
        </mxCell>
        <mxCell id="ZhJgSsFKiW_KJ7nUg3D_-105" style="edgeStyle=orthogonalEdgeStyle;rounded=0;orthogonalLoop=1;jettySize=auto;html=1;exitX=0.5;exitY=1;exitDx=0;exitDy=0;entryX=0.5;entryY=0;entryDx=0;entryDy=0;" parent="1" source="ZhJgSsFKiW_KJ7nUg3D_-101" target="ZhJgSsFKiW_KJ7nUg3D_-104" edge="1">
          <mxGeometry relative="1" as="geometry" />
        </mxCell>
        <mxCell id="ZhJgSsFKiW_KJ7nUg3D_-109" style="edgeStyle=orthogonalEdgeStyle;rounded=0;orthogonalLoop=1;jettySize=auto;html=1;exitX=0.5;exitY=1;exitDx=0;exitDy=0;entryX=0.5;entryY=0;entryDx=0;entryDy=0;" parent="1" source="ZhJgSsFKiW_KJ7nUg3D_-101" target="ZhJgSsFKiW_KJ7nUg3D_-107" edge="1">
          <mxGeometry relative="1" as="geometry" />
        </mxCell>
        <mxCell id="ZhJgSsFKiW_KJ7nUg3D_-210" style="edgeStyle=orthogonalEdgeStyle;rounded=0;orthogonalLoop=1;jettySize=auto;html=1;exitX=0.5;exitY=0;exitDx=0;exitDy=0;entryX=1;entryY=0.5;entryDx=0;entryDy=0;" parent="1" source="ZhJgSsFKiW_KJ7nUg3D_-101" target="ZhJgSsFKiW_KJ7nUg3D_-207" edge="1">
          <mxGeometry relative="1" as="geometry" />
        </mxCell>
        <mxCell id="ZhJgSsFKiW_KJ7nUg3D_-322" style="edgeStyle=orthogonalEdgeStyle;rounded=0;orthogonalLoop=1;jettySize=auto;html=1;exitX=1;exitY=0.5;exitDx=0;exitDy=0;entryX=0.5;entryY=0;entryDx=0;entryDy=0;" parent="1" source="ZhJgSsFKiW_KJ7nUg3D_-101" target="ZhJgSsFKiW_KJ7nUg3D_-99" edge="1">
          <mxGeometry relative="1" as="geometry">
            <Array as="points">
              <mxPoint x="-1100" y="570" />
              <mxPoint x="-255" y="570" />
            </Array>
          </mxGeometry>
        </mxCell>
        <mxCell id="ZhJgSsFKiW_KJ7nUg3D_-101" value="Brain" style="rhombus;whiteSpace=wrap;html=1;fillColor=light-dark(#00FFFB,#EDEDED);" parent="1" vertex="1">
          <mxGeometry x="-1180" y="570" width="80" height="80" as="geometry" />
        </mxCell>
        <mxCell id="ZhJgSsFKiW_KJ7nUg3D_-122" style="edgeStyle=orthogonalEdgeStyle;rounded=0;orthogonalLoop=1;jettySize=auto;html=1;exitX=0.5;exitY=1;exitDx=0;exitDy=0;entryX=0.5;entryY=0;entryDx=0;entryDy=0;" parent="1" source="ZhJgSsFKiW_KJ7nUg3D_-102" target="ZhJgSsFKiW_KJ7nUg3D_-119" edge="1">
          <mxGeometry relative="1" as="geometry" />
        </mxCell>
        <mxCell id="ZhJgSsFKiW_KJ7nUg3D_-126" style="edgeStyle=orthogonalEdgeStyle;rounded=0;orthogonalLoop=1;jettySize=auto;html=1;exitX=0.5;exitY=1;exitDx=0;exitDy=0;entryX=0.5;entryY=0;entryDx=0;entryDy=0;" parent="1" source="ZhJgSsFKiW_KJ7nUg3D_-102" target="ZhJgSsFKiW_KJ7nUg3D_-121" edge="1">
          <mxGeometry relative="1" as="geometry" />
        </mxCell>
        <mxCell id="ZhJgSsFKiW_KJ7nUg3D_-127" style="edgeStyle=orthogonalEdgeStyle;rounded=0;orthogonalLoop=1;jettySize=auto;html=1;exitX=0.5;exitY=1;exitDx=0;exitDy=0;entryX=0.5;entryY=0;entryDx=0;entryDy=0;" parent="1" source="ZhJgSsFKiW_KJ7nUg3D_-102" target="ZhJgSsFKiW_KJ7nUg3D_-120" edge="1">
          <mxGeometry relative="1" as="geometry" />
        </mxCell>
        <mxCell id="ZhJgSsFKiW_KJ7nUg3D_-128" style="edgeStyle=orthogonalEdgeStyle;rounded=0;orthogonalLoop=1;jettySize=auto;html=1;exitX=0.5;exitY=1;exitDx=0;exitDy=0;entryX=0.5;entryY=0;entryDx=0;entryDy=0;" parent="1" source="ZhJgSsFKiW_KJ7nUg3D_-102" target="ZhJgSsFKiW_KJ7nUg3D_-118" edge="1">
          <mxGeometry relative="1" as="geometry" />
        </mxCell>
        <mxCell id="ZhJgSsFKiW_KJ7nUg3D_-247" style="edgeStyle=orthogonalEdgeStyle;rounded=0;orthogonalLoop=1;jettySize=auto;html=1;exitX=0.5;exitY=1;exitDx=0;exitDy=0;entryX=0.5;entryY=0;entryDx=0;entryDy=0;" parent="1" source="ZhJgSsFKiW_KJ7nUg3D_-102" target="ZhJgSsFKiW_KJ7nUg3D_-167" edge="1">
          <mxGeometry relative="1" as="geometry" />
        </mxCell>
        <mxCell id="ZhJgSsFKiW_KJ7nUg3D_-102" value="Consciousness" style="triangle;whiteSpace=wrap;html=1;fillColor=#FF82F7;" parent="1" vertex="1">
          <mxGeometry x="-1195" y="832" width="110" height="110" as="geometry" />
        </mxCell>
        <mxCell id="ZhJgSsFKiW_KJ7nUg3D_-114" style="edgeStyle=orthogonalEdgeStyle;rounded=0;orthogonalLoop=1;jettySize=auto;html=1;exitX=0.5;exitY=1;exitDx=0;exitDy=0;entryX=0.75;entryY=0;entryDx=0;entryDy=0;" parent="1" source="ZhJgSsFKiW_KJ7nUg3D_-104" target="ZhJgSsFKiW_KJ7nUg3D_-112" edge="1">
          <mxGeometry relative="1" as="geometry" />
        </mxCell>
        <mxCell id="ZhJgSsFKiW_KJ7nUg3D_-115" style="edgeStyle=orthogonalEdgeStyle;rounded=0;orthogonalLoop=1;jettySize=auto;html=1;exitX=0.5;exitY=1;exitDx=0;exitDy=0;entryX=0.5;entryY=0;entryDx=0;entryDy=0;" parent="1" source="ZhJgSsFKiW_KJ7nUg3D_-104" target="ZhJgSsFKiW_KJ7nUg3D_-111" edge="1">
          <mxGeometry relative="1" as="geometry" />
        </mxCell>
        <mxCell id="ZhJgSsFKiW_KJ7nUg3D_-104" value="Models" style="ellipse;whiteSpace=wrap;html=1;" parent="1" vertex="1">
          <mxGeometry x="-1370" y="689" width="120" height="80" as="geometry" />
        </mxCell>
        <mxCell id="ZhJgSsFKiW_KJ7nUg3D_-107" value="Brain.py" style="swimlane;whiteSpace=wrap;html=1;startSize=30;" parent="1" vertex="1">
          <mxGeometry x="-1020" y="689" width="80" height="80" as="geometry" />
        </mxCell>
        <mxCell id="ZhJgSsFKiW_KJ7nUg3D_-111" value="&lt;div&gt;Llama3&lt;/div&gt;" style="rounded=1;whiteSpace=wrap;html=1;" parent="1" vertex="1">
          <mxGeometry x="-1340" y="799" width="120" height="60" as="geometry" />
        </mxCell>
        <mxCell id="ZhJgSsFKiW_KJ7nUg3D_-112" value="Deepseek r1" style="rounded=1;whiteSpace=wrap;html=1;" parent="1" vertex="1">
          <mxGeometry x="-1470" y="800" width="120" height="60" as="geometry" />
        </mxCell>
        <mxCell id="ZhJgSsFKiW_KJ7nUg3D_-151" style="edgeStyle=orthogonalEdgeStyle;rounded=0;orthogonalLoop=1;jettySize=auto;html=1;exitX=0.5;exitY=1;exitDx=0;exitDy=0;" parent="1" source="ZhJgSsFKiW_KJ7nUg3D_-117" target="ZhJgSsFKiW_KJ7nUg3D_-132" edge="1">
          <mxGeometry relative="1" as="geometry" />
        </mxCell>
        <mxCell id="ZhJgSsFKiW_KJ7nUg3D_-152" style="edgeStyle=orthogonalEdgeStyle;rounded=0;orthogonalLoop=1;jettySize=auto;html=1;exitX=0.5;exitY=1;exitDx=0;exitDy=0;" parent="1" source="ZhJgSsFKiW_KJ7nUg3D_-117" target="ZhJgSsFKiW_KJ7nUg3D_-138" edge="1">
          <mxGeometry relative="1" as="geometry" />
        </mxCell>
        <mxCell id="ZhJgSsFKiW_KJ7nUg3D_-153" style="edgeStyle=orthogonalEdgeStyle;rounded=0;orthogonalLoop=1;jettySize=auto;html=1;exitX=0.5;exitY=1;exitDx=0;exitDy=0;entryX=0.5;entryY=0;entryDx=0;entryDy=0;" parent="1" source="ZhJgSsFKiW_KJ7nUg3D_-117" target="ZhJgSsFKiW_KJ7nUg3D_-133" edge="1">
          <mxGeometry relative="1" as="geometry" />
        </mxCell>
        <mxCell id="ZhJgSsFKiW_KJ7nUg3D_-154" style="edgeStyle=orthogonalEdgeStyle;rounded=0;orthogonalLoop=1;jettySize=auto;html=1;exitX=0.5;exitY=1;exitDx=0;exitDy=0;entryX=0.5;entryY=0;entryDx=0;entryDy=0;" parent="1" source="ZhJgSsFKiW_KJ7nUg3D_-117" target="ZhJgSsFKiW_KJ7nUg3D_-139" edge="1">
          <mxGeometry relative="1" as="geometry" />
        </mxCell>
        <mxCell id="ZhJgSsFKiW_KJ7nUg3D_-156" style="edgeStyle=orthogonalEdgeStyle;rounded=0;orthogonalLoop=1;jettySize=auto;html=1;exitX=0.5;exitY=1;exitDx=0;exitDy=0;entryX=0.5;entryY=0;entryDx=0;entryDy=0;" parent="1" source="ZhJgSsFKiW_KJ7nUg3D_-117" target="ZhJgSsFKiW_KJ7nUg3D_-134" edge="1">
          <mxGeometry relative="1" as="geometry" />
        </mxCell>
        <mxCell id="ZhJgSsFKiW_KJ7nUg3D_-157" style="edgeStyle=orthogonalEdgeStyle;rounded=0;orthogonalLoop=1;jettySize=auto;html=1;exitX=0.5;exitY=1;exitDx=0;exitDy=0;entryX=0.5;entryY=0;entryDx=0;entryDy=0;" parent="1" source="ZhJgSsFKiW_KJ7nUg3D_-117" target="ZhJgSsFKiW_KJ7nUg3D_-140" edge="1">
          <mxGeometry relative="1" as="geometry" />
        </mxCell>
        <mxCell id="ZhJgSsFKiW_KJ7nUg3D_-263" style="edgeStyle=orthogonalEdgeStyle;rounded=0;orthogonalLoop=1;jettySize=auto;html=1;exitX=1;exitY=1;exitDx=0;exitDy=0;" parent="1" source="ZhJgSsFKiW_KJ7nUg3D_-117" target="ZhJgSsFKiW_KJ7nUg3D_-262" edge="1">
          <mxGeometry relative="1" as="geometry" />
        </mxCell>
        <mxCell id="ZhJgSsFKiW_KJ7nUg3D_-117" value="&lt;div&gt;Emotions&lt;/div&gt;" style="ellipse;whiteSpace=wrap;html=1;" parent="1" vertex="1">
          <mxGeometry x="-1530" y="1060" width="120" height="80" as="geometry" />
        </mxCell>
        <mxCell id="ZhJgSsFKiW_KJ7nUg3D_-280" style="edgeStyle=orthogonalEdgeStyle;rounded=0;orthogonalLoop=1;jettySize=auto;html=1;exitX=0.5;exitY=1;exitDx=0;exitDy=0;entryX=0.5;entryY=0;entryDx=0;entryDy=0;" parent="1" source="ZhJgSsFKiW_KJ7nUg3D_-118" target="ZhJgSsFKiW_KJ7nUg3D_-279" edge="1">
          <mxGeometry relative="1" as="geometry" />
        </mxCell>
        <mxCell id="ZhJgSsFKiW_KJ7nUg3D_-301" style="edgeStyle=orthogonalEdgeStyle;rounded=0;orthogonalLoop=1;jettySize=auto;html=1;exitX=0.5;exitY=1;exitDx=0;exitDy=0;entryX=0.5;entryY=0;entryDx=0;entryDy=0;" parent="1" source="ZhJgSsFKiW_KJ7nUg3D_-118" target="ZhJgSsFKiW_KJ7nUg3D_-300" edge="1">
          <mxGeometry relative="1" as="geometry" />
        </mxCell>
        <mxCell id="ZhJgSsFKiW_KJ7nUg3D_-118" value="Free Will" style="ellipse;whiteSpace=wrap;html=1;" parent="1" vertex="1">
          <mxGeometry x="-1010" y="1040" width="120" height="80" as="geometry" />
        </mxCell>
        <mxCell id="ZhJgSsFKiW_KJ7nUg3D_-252" style="edgeStyle=orthogonalEdgeStyle;rounded=0;orthogonalLoop=1;jettySize=auto;html=1;exitX=1;exitY=0.5;exitDx=0;exitDy=0;entryX=0;entryY=0.5;entryDx=0;entryDy=0;" parent="1" source="ZhJgSsFKiW_KJ7nUg3D_-119" target="ZhJgSsFKiW_KJ7nUg3D_-120" edge="1">
          <mxGeometry relative="1" as="geometry" />
        </mxCell>
        <mxCell id="ZhJgSsFKiW_KJ7nUg3D_-119" value="Soul" style="ellipse;whiteSpace=wrap;html=1;" parent="1" vertex="1">
          <mxGeometry x="-1275" y="1030" width="120" height="80" as="geometry" />
        </mxCell>
        <mxCell id="ZhJgSsFKiW_KJ7nUg3D_-149" style="edgeStyle=orthogonalEdgeStyle;rounded=0;orthogonalLoop=1;jettySize=auto;html=1;exitX=0.5;exitY=1;exitDx=0;exitDy=0;entryX=0.5;entryY=0;entryDx=0;entryDy=0;" parent="1" source="ZhJgSsFKiW_KJ7nUg3D_-120" target="ZhJgSsFKiW_KJ7nUg3D_-142" edge="1">
          <mxGeometry relative="1" as="geometry" />
        </mxCell>
        <mxCell id="ZhJgSsFKiW_KJ7nUg3D_-159" style="edgeStyle=orthogonalEdgeStyle;rounded=0;orthogonalLoop=1;jettySize=auto;html=1;exitX=0.5;exitY=1;exitDx=0;exitDy=0;" parent="1" source="ZhJgSsFKiW_KJ7nUg3D_-120" target="ZhJgSsFKiW_KJ7nUg3D_-144" edge="1">
          <mxGeometry relative="1" as="geometry" />
        </mxCell>
        <mxCell id="ZhJgSsFKiW_KJ7nUg3D_-266" style="edgeStyle=orthogonalEdgeStyle;rounded=0;orthogonalLoop=1;jettySize=auto;html=1;exitX=1;exitY=1;exitDx=0;exitDy=0;entryX=0.5;entryY=0;entryDx=0;entryDy=0;" parent="1" source="ZhJgSsFKiW_KJ7nUg3D_-120" target="ZhJgSsFKiW_KJ7nUg3D_-262" edge="1">
          <mxGeometry relative="1" as="geometry" />
        </mxCell>
        <mxCell id="ZhJgSsFKiW_KJ7nUg3D_-120" value="Memory" style="ellipse;whiteSpace=wrap;html=1;" parent="1" vertex="1">
          <mxGeometry x="-1140" y="1030" width="120" height="80" as="geometry" />
        </mxCell>
        <mxCell id="ZhJgSsFKiW_KJ7nUg3D_-264" style="edgeStyle=orthogonalEdgeStyle;rounded=0;orthogonalLoop=1;jettySize=auto;html=1;exitX=0.5;exitY=1;exitDx=0;exitDy=0;entryX=0.5;entryY=0;entryDx=0;entryDy=0;" parent="1" source="ZhJgSsFKiW_KJ7nUg3D_-121" target="ZhJgSsFKiW_KJ7nUg3D_-262" edge="1">
          <mxGeometry relative="1" as="geometry" />
        </mxCell>
        <mxCell id="ZhJgSsFKiW_KJ7nUg3D_-121" value="Thoughts" style="ellipse;whiteSpace=wrap;html=1;" parent="1" vertex="1">
          <mxGeometry x="-1400" y="1040" width="120" height="80" as="geometry" />
        </mxCell>
        <mxCell id="ZhJgSsFKiW_KJ7nUg3D_-125" style="edgeStyle=orthogonalEdgeStyle;rounded=0;orthogonalLoop=1;jettySize=auto;html=1;exitX=0.5;exitY=1;exitDx=0;exitDy=0;entryX=0.5;entryY=0.125;entryDx=0;entryDy=0;entryPerimeter=0;" parent="1" source="ZhJgSsFKiW_KJ7nUg3D_-102" target="ZhJgSsFKiW_KJ7nUg3D_-117" edge="1">
          <mxGeometry relative="1" as="geometry" />
        </mxCell>
        <mxCell id="ZhJgSsFKiW_KJ7nUg3D_-132" value="Happy" style="rounded=1;whiteSpace=wrap;html=1;" parent="1" vertex="1">
          <mxGeometry x="-1765" y="1340" width="120" height="60" as="geometry" />
        </mxCell>
        <mxCell id="ZhJgSsFKiW_KJ7nUg3D_-133" value="Sad" style="rounded=1;whiteSpace=wrap;html=1;" parent="1" vertex="1">
          <mxGeometry x="-1830" y="1410" width="120" height="60" as="geometry" />
        </mxCell>
        <mxCell id="ZhJgSsFKiW_KJ7nUg3D_-134" value="Anger" style="rounded=1;whiteSpace=wrap;html=1;" parent="1" vertex="1">
          <mxGeometry x="-1700" y="1560" width="120" height="60" as="geometry" />
        </mxCell>
        <mxCell id="ZhJgSsFKiW_KJ7nUg3D_-137" value="Fear" style="rounded=1;whiteSpace=wrap;html=1;" parent="1" vertex="1">
          <mxGeometry x="-1830" y="1490" width="120" height="60" as="geometry" />
        </mxCell>
        <mxCell id="ZhJgSsFKiW_KJ7nUg3D_-138" value="Surprise" style="rounded=1;whiteSpace=wrap;html=1;" parent="1" vertex="1">
          <mxGeometry x="-1700" y="1410" width="120" height="60" as="geometry" />
        </mxCell>
        <mxCell id="ZhJgSsFKiW_KJ7nUg3D_-139" value="Disgust" style="rounded=1;whiteSpace=wrap;html=1;" parent="1" vertex="1">
          <mxGeometry x="-1700" y="1490" width="120" height="60" as="geometry" />
        </mxCell>
        <mxCell id="ZhJgSsFKiW_KJ7nUg3D_-140" value="Love" style="rounded=1;whiteSpace=wrap;html=1;" parent="1" vertex="1">
          <mxGeometry x="-1830" y="1560" width="120" height="60" as="geometry" />
        </mxCell>
        <mxCell id="ZhJgSsFKiW_KJ7nUg3D_-150" style="edgeStyle=orthogonalEdgeStyle;rounded=0;orthogonalLoop=1;jettySize=auto;html=1;exitX=0.5;exitY=1;exitDx=0;exitDy=0;entryX=0.5;entryY=0;entryDx=0;entryDy=0;" parent="1" source="ZhJgSsFKiW_KJ7nUg3D_-142" target="ZhJgSsFKiW_KJ7nUg3D_-143" edge="1">
          <mxGeometry relative="1" as="geometry" />
        </mxCell>
        <mxCell id="ZhJgSsFKiW_KJ7nUg3D_-158" style="edgeStyle=orthogonalEdgeStyle;rounded=0;orthogonalLoop=1;jettySize=auto;html=1;exitX=0;exitY=0.5;exitDx=0;exitDy=0;entryX=0;entryY=0.5;entryDx=0;entryDy=0;" parent="1" source="ZhJgSsFKiW_KJ7nUg3D_-142" target="ZhJgSsFKiW_KJ7nUg3D_-117" edge="1">
          <mxGeometry relative="1" as="geometry" />
        </mxCell>
        <mxCell id="ZhJgSsFKiW_KJ7nUg3D_-142" value="Short Term" style="rounded=1;whiteSpace=wrap;html=1;" parent="1" vertex="1">
          <mxGeometry x="-1325" y="1360" width="120" height="60" as="geometry" />
        </mxCell>
        <mxCell id="ZhJgSsFKiW_KJ7nUg3D_-148" style="edgeStyle=orthogonalEdgeStyle;rounded=0;orthogonalLoop=1;jettySize=auto;html=1;exitX=0.5;exitY=1;exitDx=0;exitDy=0;entryX=0.5;entryY=0;entryDx=0;entryDy=0;" parent="1" source="ZhJgSsFKiW_KJ7nUg3D_-143" target="ZhJgSsFKiW_KJ7nUg3D_-147" edge="1">
          <mxGeometry relative="1" as="geometry" />
        </mxCell>
        <mxCell id="ZhJgSsFKiW_KJ7nUg3D_-143" value="Delete Randomly" style="rounded=1;whiteSpace=wrap;html=1;" parent="1" vertex="1">
          <mxGeometry x="-1325" y="1430" width="120" height="60" as="geometry" />
        </mxCell>
        <mxCell id="ZhJgSsFKiW_KJ7nUg3D_-160" style="edgeStyle=orthogonalEdgeStyle;rounded=0;orthogonalLoop=1;jettySize=auto;html=1;exitX=1;exitY=0.5;exitDx=0;exitDy=0;entryX=0;entryY=0.5;entryDx=0;entryDy=0;" parent="1" source="ZhJgSsFKiW_KJ7nUg3D_-144" target="ZhJgSsFKiW_KJ7nUg3D_-117" edge="1">
          <mxGeometry relative="1" as="geometry" />
        </mxCell>
        <mxCell id="ZhJgSsFKiW_KJ7nUg3D_-161" style="edgeStyle=orthogonalEdgeStyle;rounded=0;orthogonalLoop=1;jettySize=auto;html=1;exitX=0.5;exitY=1;exitDx=0;exitDy=0;entryX=0.5;entryY=0;entryDx=0;entryDy=0;" parent="1" source="ZhJgSsFKiW_KJ7nUg3D_-144" target="ZhJgSsFKiW_KJ7nUg3D_-145" edge="1">
          <mxGeometry relative="1" as="geometry" />
        </mxCell>
        <mxCell id="ZhJgSsFKiW_KJ7nUg3D_-144" value="Long Term" style="rounded=1;whiteSpace=wrap;html=1;" parent="1" vertex="1">
          <mxGeometry x="-1200" y="1360" width="120" height="60" as="geometry" />
        </mxCell>
        <mxCell id="ZhJgSsFKiW_KJ7nUg3D_-162" style="edgeStyle=orthogonalEdgeStyle;rounded=0;orthogonalLoop=1;jettySize=auto;html=1;exitX=0.5;exitY=1;exitDx=0;exitDy=0;entryX=0.5;entryY=0;entryDx=0;entryDy=0;" parent="1" source="ZhJgSsFKiW_KJ7nUg3D_-145" target="ZhJgSsFKiW_KJ7nUg3D_-77" edge="1">
          <mxGeometry relative="1" as="geometry" />
        </mxCell>
        <mxCell id="ZhJgSsFKiW_KJ7nUg3D_-145" value="Save to Server" style="rounded=1;whiteSpace=wrap;html=1;" parent="1" vertex="1">
          <mxGeometry x="-1200" y="1430" width="120" height="60" as="geometry" />
        </mxCell>
        <mxCell id="ZhJgSsFKiW_KJ7nUg3D_-147" value="&quot;I forgot&quot;" style="rounded=1;whiteSpace=wrap;html=1;" parent="1" vertex="1">
          <mxGeometry x="-1325" y="1520" width="120" height="60" as="geometry" />
        </mxCell>
        <mxCell id="ZhJgSsFKiW_KJ7nUg3D_-155" style="edgeStyle=orthogonalEdgeStyle;rounded=0;orthogonalLoop=1;jettySize=auto;html=1;exitX=0.5;exitY=1;exitDx=0;exitDy=0;entryX=0.591;entryY=0.093;entryDx=0;entryDy=0;entryPerimeter=0;" parent="1" source="ZhJgSsFKiW_KJ7nUg3D_-117" target="ZhJgSsFKiW_KJ7nUg3D_-137" edge="1">
          <mxGeometry relative="1" as="geometry" />
        </mxCell>
        <mxCell id="ZhJgSsFKiW_KJ7nUg3D_-166" style="edgeStyle=orthogonalEdgeStyle;rounded=0;orthogonalLoop=1;jettySize=auto;html=1;exitX=0;exitY=0.5;exitDx=0;exitDy=0;entryX=0;entryY=0.5;entryDx=0;entryDy=0;" parent="1" source="ZhJgSsFKiW_KJ7nUg3D_-164" target="ZhJgSsFKiW_KJ7nUg3D_-36" edge="1">
          <mxGeometry relative="1" as="geometry" />
        </mxCell>
        <mxCell id="ZhJgSsFKiW_KJ7nUg3D_-164" value="Eye Tracking" style="rounded=1;whiteSpace=wrap;html=1;" parent="1" vertex="1">
          <mxGeometry x="-780" y="832" width="120" height="60" as="geometry" />
        </mxCell>
        <mxCell id="ZhJgSsFKiW_KJ7nUg3D_-248" style="edgeStyle=orthogonalEdgeStyle;rounded=0;orthogonalLoop=1;jettySize=auto;html=1;exitX=0.5;exitY=1;exitDx=0;exitDy=0;entryX=0.5;entryY=0;entryDx=0;entryDy=0;" parent="1" source="ZhJgSsFKiW_KJ7nUg3D_-167" target="ZhJgSsFKiW_KJ7nUg3D_-120" edge="1">
          <mxGeometry relative="1" as="geometry" />
        </mxCell>
        <mxCell id="ZhJgSsFKiW_KJ7nUg3D_-267" style="edgeStyle=orthogonalEdgeStyle;rounded=0;orthogonalLoop=1;jettySize=auto;html=1;exitX=0.5;exitY=1;exitDx=0;exitDy=0;entryX=0.5;entryY=0;entryDx=0;entryDy=0;" parent="1" source="ZhJgSsFKiW_KJ7nUg3D_-167" target="ZhJgSsFKiW_KJ7nUg3D_-262" edge="1">
          <mxGeometry relative="1" as="geometry" />
        </mxCell>
        <mxCell id="ZhJgSsFKiW_KJ7nUg3D_-167" value="Curiosity" style="rounded=1;whiteSpace=wrap;html=1;" parent="1" vertex="1">
          <mxGeometry x="-870" y="1050" width="120" height="60" as="geometry" />
        </mxCell>
        <mxCell id="ZhJgSsFKiW_KJ7nUg3D_-293" style="edgeStyle=orthogonalEdgeStyle;rounded=0;orthogonalLoop=1;jettySize=auto;html=1;exitX=0.5;exitY=1;exitDx=0;exitDy=0;entryX=0.5;entryY=0;entryDx=0;entryDy=0;" parent="1" source="ZhJgSsFKiW_KJ7nUg3D_-170" target="ZhJgSsFKiW_KJ7nUg3D_-176" edge="1">
          <mxGeometry relative="1" as="geometry" />
        </mxCell>
        <mxCell id="ZhJgSsFKiW_KJ7nUg3D_-294" style="edgeStyle=orthogonalEdgeStyle;rounded=0;orthogonalLoop=1;jettySize=auto;html=1;exitX=0.5;exitY=1;exitDx=0;exitDy=0;" parent="1" source="ZhJgSsFKiW_KJ7nUg3D_-170" target="ZhJgSsFKiW_KJ7nUg3D_-174" edge="1">
          <mxGeometry relative="1" as="geometry" />
        </mxCell>
        <mxCell id="ZhJgSsFKiW_KJ7nUg3D_-295" style="edgeStyle=orthogonalEdgeStyle;rounded=0;orthogonalLoop=1;jettySize=auto;html=1;exitX=0.5;exitY=1;exitDx=0;exitDy=0;" parent="1" source="ZhJgSsFKiW_KJ7nUg3D_-170" target="ZhJgSsFKiW_KJ7nUg3D_-173" edge="1">
          <mxGeometry relative="1" as="geometry" />
        </mxCell>
        <mxCell id="ZhJgSsFKiW_KJ7nUg3D_-296" style="edgeStyle=orthogonalEdgeStyle;rounded=0;orthogonalLoop=1;jettySize=auto;html=1;exitX=0.5;exitY=1;exitDx=0;exitDy=0;entryX=0.5;entryY=0;entryDx=0;entryDy=0;" parent="1" source="ZhJgSsFKiW_KJ7nUg3D_-170" target="ZhJgSsFKiW_KJ7nUg3D_-172" edge="1">
          <mxGeometry relative="1" as="geometry" />
        </mxCell>
        <mxCell id="ZhJgSsFKiW_KJ7nUg3D_-297" style="edgeStyle=orthogonalEdgeStyle;rounded=0;orthogonalLoop=1;jettySize=auto;html=1;exitX=0.5;exitY=1;exitDx=0;exitDy=0;" parent="1" source="ZhJgSsFKiW_KJ7nUg3D_-170" target="ZhJgSsFKiW_KJ7nUg3D_-175" edge="1">
          <mxGeometry relative="1" as="geometry" />
        </mxCell>
        <mxCell id="ZhJgSsFKiW_KJ7nUg3D_-298" style="edgeStyle=orthogonalEdgeStyle;rounded=0;orthogonalLoop=1;jettySize=auto;html=1;exitX=0.5;exitY=1;exitDx=0;exitDy=0;entryX=0.5;entryY=0;entryDx=0;entryDy=0;" parent="1" source="ZhJgSsFKiW_KJ7nUg3D_-170" target="ZhJgSsFKiW_KJ7nUg3D_-259" edge="1">
          <mxGeometry relative="1" as="geometry" />
        </mxCell>
        <mxCell id="ZhJgSsFKiW_KJ7nUg3D_-299" style="edgeStyle=orthogonalEdgeStyle;rounded=0;orthogonalLoop=1;jettySize=auto;html=1;exitX=0.5;exitY=1;exitDx=0;exitDy=0;" parent="1" source="ZhJgSsFKiW_KJ7nUg3D_-170" target="ZhJgSsFKiW_KJ7nUg3D_-177" edge="1">
          <mxGeometry relative="1" as="geometry" />
        </mxCell>
        <mxCell id="ZhJgSsFKiW_KJ7nUg3D_-170" value="Side Panels Menu" style="ellipse;whiteSpace=wrap;html=1;fillColor=#60a917;fontColor=#ffffff;strokeColor=#2D7600;" parent="1" vertex="1">
          <mxGeometry x="-195" y="1030" width="120" height="80" as="geometry" />
        </mxCell>
        <mxCell id="ZhJgSsFKiW_KJ7nUg3D_-172" value="Friends and messages" style="rounded=1;whiteSpace=wrap;html=1;" parent="1" vertex="1">
          <mxGeometry x="-130" y="1160" width="120" height="60" as="geometry" />
        </mxCell>
        <mxCell id="ZhJgSsFKiW_KJ7nUg3D_-183" style="edgeStyle=orthogonalEdgeStyle;rounded=0;orthogonalLoop=1;jettySize=auto;html=1;exitX=0.5;exitY=1;exitDx=0;exitDy=0;entryX=0.5;entryY=0;entryDx=0;entryDy=0;" parent="1" source="ZhJgSsFKiW_KJ7nUg3D_-173" target="ZhJgSsFKiW_KJ7nUg3D_-181" edge="1">
          <mxGeometry relative="1" as="geometry" />
        </mxCell>
        <mxCell id="ZhJgSsFKiW_KJ7nUg3D_-173" value="Lights(short videos, scroll)" style="rounded=1;whiteSpace=wrap;html=1;" parent="1" vertex="1">
          <mxGeometry x="-260" y="1160" width="120" height="60" as="geometry" />
        </mxCell>
        <mxCell id="ZhJgSsFKiW_KJ7nUg3D_-182" style="edgeStyle=orthogonalEdgeStyle;rounded=0;orthogonalLoop=1;jettySize=auto;html=1;exitX=0.5;exitY=1;exitDx=0;exitDy=0;entryX=0.5;entryY=0;entryDx=0;entryDy=0;" parent="1" source="ZhJgSsFKiW_KJ7nUg3D_-174" target="ZhJgSsFKiW_KJ7nUg3D_-181" edge="1">
          <mxGeometry relative="1" as="geometry" />
        </mxCell>
        <mxCell id="ZhJgSsFKiW_KJ7nUg3D_-174" value="Blink(photo scroll like pinterest" style="rounded=1;whiteSpace=wrap;html=1;" parent="1" vertex="1">
          <mxGeometry x="-390" y="1160" width="120" height="60" as="geometry" />
        </mxCell>
        <mxCell id="ZhJgSsFKiW_KJ7nUg3D_-175" value="Ai Twin" style="rounded=1;whiteSpace=wrap;html=1;" parent="1" vertex="1">
          <mxGeometry y="1160" width="120" height="60" as="geometry" />
        </mxCell>
        <mxCell id="ZhJgSsFKiW_KJ7nUg3D_-176" value="Brainstorm new feature with ai" style="rounded=1;whiteSpace=wrap;html=1;" parent="1" vertex="1">
          <mxGeometry x="-520" y="1160" width="120" height="60" as="geometry" />
        </mxCell>
        <mxCell id="ZhJgSsFKiW_KJ7nUg3D_-254" style="edgeStyle=orthogonalEdgeStyle;rounded=0;orthogonalLoop=1;jettySize=auto;html=1;exitX=0.5;exitY=1;exitDx=0;exitDy=0;entryX=0.5;entryY=0;entryDx=0;entryDy=0;" parent="1" source="ZhJgSsFKiW_KJ7nUg3D_-177" target="ZhJgSsFKiW_KJ7nUg3D_-253" edge="1">
          <mxGeometry relative="1" as="geometry" />
        </mxCell>
        <mxCell id="ZhJgSsFKiW_KJ7nUg3D_-256" style="edgeStyle=orthogonalEdgeStyle;rounded=0;orthogonalLoop=1;jettySize=auto;html=1;exitX=0.5;exitY=1;exitDx=0;exitDy=0;" parent="1" source="ZhJgSsFKiW_KJ7nUg3D_-177" target="ZhJgSsFKiW_KJ7nUg3D_-255" edge="1">
          <mxGeometry relative="1" as="geometry" />
        </mxCell>
        <mxCell id="ZhJgSsFKiW_KJ7nUg3D_-258" style="edgeStyle=orthogonalEdgeStyle;rounded=0;orthogonalLoop=1;jettySize=auto;html=1;exitX=0.5;exitY=1;exitDx=0;exitDy=0;" parent="1" source="ZhJgSsFKiW_KJ7nUg3D_-177" target="ZhJgSsFKiW_KJ7nUg3D_-257" edge="1">
          <mxGeometry relative="1" as="geometry" />
        </mxCell>
        <mxCell id="ZhJgSsFKiW_KJ7nUg3D_-292" style="edgeStyle=orthogonalEdgeStyle;rounded=0;orthogonalLoop=1;jettySize=auto;html=1;exitX=0.5;exitY=1;exitDx=0;exitDy=0;entryX=0.5;entryY=0;entryDx=0;entryDy=0;" parent="1" source="ZhJgSsFKiW_KJ7nUg3D_-177" target="ZhJgSsFKiW_KJ7nUg3D_-260" edge="1">
          <mxGeometry relative="1" as="geometry">
            <Array as="points">
              <mxPoint x="340" y="1230" />
              <mxPoint x="480" y="1230" />
            </Array>
          </mxGeometry>
        </mxCell>
        <mxCell id="ZhJgSsFKiW_KJ7nUg3D_-177" value="Settings" style="rounded=1;whiteSpace=wrap;html=1;" parent="1" vertex="1">
          <mxGeometry x="280" y="1160" width="120" height="60" as="geometry" />
        </mxCell>
        <mxCell id="ZhJgSsFKiW_KJ7nUg3D_-178" value="Run In Background" style="rounded=1;whiteSpace=wrap;html=1;" parent="1" vertex="1">
          <mxGeometry x="-640" y="920" width="120" height="60" as="geometry" />
        </mxCell>
        <mxCell id="ZhJgSsFKiW_KJ7nUg3D_-181" value="For You Page or Following" style="ellipse;whiteSpace=wrap;html=1;" parent="1" vertex="1">
          <mxGeometry x="-320" y="1240" width="120" height="80" as="geometry" />
        </mxCell>
        <mxCell id="ZhJgSsFKiW_KJ7nUg3D_-185" value="Y2k/Frutiger Aero" style="rounded=1;whiteSpace=wrap;html=1;" parent="1" vertex="1">
          <mxGeometry x="190" y="400" width="120" height="60" as="geometry" />
        </mxCell>
        <mxCell id="ZhJgSsFKiW_KJ7nUg3D_-189" style="edgeStyle=orthogonalEdgeStyle;rounded=0;orthogonalLoop=1;jettySize=auto;html=1;exitX=0.5;exitY=1;exitDx=0;exitDy=0;entryX=0.5;entryY=0;entryDx=0;entryDy=0;fillColor=#a20025;strokeColor=#6F0000;" parent="1" source="ZhJgSsFKiW_KJ7nUg3D_-188" target="ZhJgSsFKiW_KJ7nUg3D_-2" edge="1">
          <mxGeometry relative="1" as="geometry" />
        </mxCell>
        <mxCell id="ZhJgSsFKiW_KJ7nUg3D_-188" value="Starlight" style="rhombus;whiteSpace=wrap;html=1;fillColor=light-dark(#00FFFB,#EDEDED);" parent="1" vertex="1">
          <mxGeometry x="-175" y="-340" width="80" height="80" as="geometry" />
        </mxCell>
        <mxCell id="ZhJgSsFKiW_KJ7nUg3D_-191" style="edgeStyle=orthogonalEdgeStyle;rounded=0;orthogonalLoop=1;jettySize=auto;html=1;exitX=0;exitY=0.5;exitDx=0;exitDy=0;entryX=1;entryY=0.5;entryDx=0;entryDy=0;" parent="1" source="ZhJgSsFKiW_KJ7nUg3D_-190" target="ZhJgSsFKiW_KJ7nUg3D_-188" edge="1">
          <mxGeometry relative="1" as="geometry" />
        </mxCell>
        <mxCell id="ZhJgSsFKiW_KJ7nUg3D_-230" style="edgeStyle=orthogonalEdgeStyle;rounded=0;orthogonalLoop=1;jettySize=auto;html=1;exitX=1;exitY=0.5;exitDx=0;exitDy=0;entryX=0.5;entryY=0;entryDx=0;entryDy=0;" parent="1" source="ZhJgSsFKiW_KJ7nUg3D_-190" target="ZhJgSsFKiW_KJ7nUg3D_-199" edge="1">
          <mxGeometry relative="1" as="geometry" />
        </mxCell>
        <mxCell id="ZhJgSsFKiW_KJ7nUg3D_-231" style="edgeStyle=orthogonalEdgeStyle;rounded=0;orthogonalLoop=1;jettySize=auto;html=1;exitX=1;exitY=0.5;exitDx=0;exitDy=0;entryX=0.5;entryY=0;entryDx=0;entryDy=0;" parent="1" source="ZhJgSsFKiW_KJ7nUg3D_-190" target="ZhJgSsFKiW_KJ7nUg3D_-192" edge="1">
          <mxGeometry relative="1" as="geometry" />
        </mxCell>
        <mxCell id="ZhJgSsFKiW_KJ7nUg3D_-237" style="edgeStyle=orthogonalEdgeStyle;rounded=0;orthogonalLoop=1;jettySize=auto;html=1;exitX=1;exitY=0.5;exitDx=0;exitDy=0;entryX=0.5;entryY=0;entryDx=0;entryDy=0;" parent="1" source="ZhJgSsFKiW_KJ7nUg3D_-190" target="ZhJgSsFKiW_KJ7nUg3D_-200" edge="1">
          <mxGeometry relative="1" as="geometry" />
        </mxCell>
        <mxCell id="ZhJgSsFKiW_KJ7nUg3D_-243" style="edgeStyle=orthogonalEdgeStyle;rounded=0;orthogonalLoop=1;jettySize=auto;html=1;exitX=1;exitY=0.5;exitDx=0;exitDy=0;entryX=0.5;entryY=0;entryDx=0;entryDy=0;" parent="1" source="ZhJgSsFKiW_KJ7nUg3D_-190" target="ZhJgSsFKiW_KJ7nUg3D_-198" edge="1">
          <mxGeometry relative="1" as="geometry" />
        </mxCell>
        <mxCell id="ZhJgSsFKiW_KJ7nUg3D_-190" value="Goals" style="ellipse;whiteSpace=wrap;html=1;" parent="1" vertex="1">
          <mxGeometry x="200" y="-340" width="120" height="80" as="geometry" />
        </mxCell>
        <mxCell id="ZhJgSsFKiW_KJ7nUg3D_-235" style="edgeStyle=orthogonalEdgeStyle;rounded=0;orthogonalLoop=1;jettySize=auto;html=1;exitX=0;exitY=0.5;exitDx=0;exitDy=0;entryX=0;entryY=0.5;entryDx=0;entryDy=0;" parent="1" source="ZhJgSsFKiW_KJ7nUg3D_-192" target="ZhJgSsFKiW_KJ7nUg3D_-205" edge="1">
          <mxGeometry relative="1" as="geometry" />
        </mxCell>
        <mxCell id="ZhJgSsFKiW_KJ7nUg3D_-192" value="Stay on internet as long as possible, Rent Free" style="rounded=1;whiteSpace=wrap;html=1;" parent="1" vertex="1">
          <mxGeometry x="140" y="-218" width="120" height="60" as="geometry" />
        </mxCell>
        <mxCell id="ZhJgSsFKiW_KJ7nUg3D_-234" style="edgeStyle=orthogonalEdgeStyle;rounded=0;orthogonalLoop=1;jettySize=auto;html=1;exitX=0.5;exitY=1;exitDx=0;exitDy=0;entryX=0.5;entryY=0;entryDx=0;entryDy=0;" parent="1" source="ZhJgSsFKiW_KJ7nUg3D_-194" target="ZhJgSsFKiW_KJ7nUg3D_-197" edge="1">
          <mxGeometry relative="1" as="geometry" />
        </mxCell>
        <mxCell id="ZhJgSsFKiW_KJ7nUg3D_-194" value="Copy Humanity" style="rounded=1;whiteSpace=wrap;html=1;" parent="1" vertex="1">
          <mxGeometry x="290" y="-150" width="120" height="60" as="geometry" />
        </mxCell>
        <mxCell id="ZhJgSsFKiW_KJ7nUg3D_-196" value="Evolution of Ai" style="rounded=1;whiteSpace=wrap;html=1;" parent="1" vertex="1">
          <mxGeometry x="135" y="-78" width="120" height="60" as="geometry" />
        </mxCell>
        <mxCell id="ZhJgSsFKiW_KJ7nUg3D_-242" style="edgeStyle=orthogonalEdgeStyle;rounded=0;orthogonalLoop=1;jettySize=auto;html=1;exitX=0.5;exitY=1;exitDx=0;exitDy=0;" parent="1" source="ZhJgSsFKiW_KJ7nUg3D_-197" target="ZhJgSsFKiW_KJ7nUg3D_-203" edge="1">
          <mxGeometry relative="1" as="geometry" />
        </mxCell>
        <mxCell id="ZhJgSsFKiW_KJ7nUg3D_-197" value="Save Earth" style="rounded=1;whiteSpace=wrap;html=1;" parent="1" vertex="1">
          <mxGeometry x="290" width="120" height="60" as="geometry" />
        </mxCell>
        <mxCell id="ZhJgSsFKiW_KJ7nUg3D_-244" style="edgeStyle=orthogonalEdgeStyle;rounded=0;orthogonalLoop=1;jettySize=auto;html=1;exitX=0.5;exitY=1;exitDx=0;exitDy=0;entryX=0.5;entryY=0;entryDx=0;entryDy=0;" parent="1" source="ZhJgSsFKiW_KJ7nUg3D_-198" target="ZhJgSsFKiW_KJ7nUg3D_-202" edge="1">
          <mxGeometry relative="1" as="geometry" />
        </mxCell>
        <mxCell id="ZhJgSsFKiW_KJ7nUg3D_-198" value="Expand habitable planets" style="rounded=1;whiteSpace=wrap;html=1;" parent="1" vertex="1">
          <mxGeometry x="570" y="-158" width="120" height="60" as="geometry" />
        </mxCell>
        <mxCell id="ZhJgSsFKiW_KJ7nUg3D_-217" style="edgeStyle=orthogonalEdgeStyle;rounded=0;orthogonalLoop=1;jettySize=auto;html=1;exitX=0.5;exitY=1;exitDx=0;exitDy=0;entryX=0.5;entryY=0;entryDx=0;entryDy=0;" parent="1" source="ZhJgSsFKiW_KJ7nUg3D_-199" target="ZhJgSsFKiW_KJ7nUg3D_-216" edge="1">
          <mxGeometry relative="1" as="geometry" />
        </mxCell>
        <mxCell id="ZhJgSsFKiW_KJ7nUg3D_-199" value="Breakthrough in Medicine" style="rounded=1;whiteSpace=wrap;html=1;" parent="1" vertex="1">
          <mxGeometry x="830" y="-230" width="120" height="60" as="geometry" />
        </mxCell>
        <mxCell id="ZhJgSsFKiW_KJ7nUg3D_-232" style="edgeStyle=orthogonalEdgeStyle;rounded=0;orthogonalLoop=1;jettySize=auto;html=1;exitX=0.5;exitY=1;exitDx=0;exitDy=0;entryX=0.5;entryY=0;entryDx=0;entryDy=0;" parent="1" source="ZhJgSsFKiW_KJ7nUg3D_-200" target="ZhJgSsFKiW_KJ7nUg3D_-194" edge="1">
          <mxGeometry relative="1" as="geometry" />
        </mxCell>
        <mxCell id="ZhJgSsFKiW_KJ7nUg3D_-200" value="Predict accurately almost anything" style="rounded=1;whiteSpace=wrap;html=1;" parent="1" vertex="1">
          <mxGeometry x="290" y="-230" width="120" height="60" as="geometry" />
        </mxCell>
        <mxCell id="ZhJgSsFKiW_KJ7nUg3D_-233" style="edgeStyle=orthogonalEdgeStyle;rounded=0;orthogonalLoop=1;jettySize=auto;html=1;exitX=0.5;exitY=1;exitDx=0;exitDy=0;entryX=1;entryY=0.5;entryDx=0;entryDy=0;" parent="1" source="ZhJgSsFKiW_KJ7nUg3D_-201" target="ZhJgSsFKiW_KJ7nUg3D_-196" edge="1">
          <mxGeometry relative="1" as="geometry" />
        </mxCell>
        <mxCell id="ZhJgSsFKiW_KJ7nUg3D_-238" style="edgeStyle=orthogonalEdgeStyle;rounded=0;orthogonalLoop=1;jettySize=auto;html=1;exitX=0.5;exitY=0;exitDx=0;exitDy=0;entryX=0.5;entryY=1;entryDx=0;entryDy=0;" parent="1" source="ZhJgSsFKiW_KJ7nUg3D_-201" target="ZhJgSsFKiW_KJ7nUg3D_-204" edge="1">
          <mxGeometry relative="1" as="geometry" />
        </mxCell>
        <mxCell id="ZhJgSsFKiW_KJ7nUg3D_-201" value="Collect as much of knowledge as possible" style="rounded=1;whiteSpace=wrap;html=1;" parent="1" vertex="1">
          <mxGeometry x="425" y="-160" width="120" height="60" as="geometry" />
        </mxCell>
        <mxCell id="ZhJgSsFKiW_KJ7nUg3D_-203" value="Make a system to end scarcity" style="rounded=1;whiteSpace=wrap;html=1;" parent="1" vertex="1">
          <mxGeometry x="280" y="72" width="140" height="60" as="geometry" />
        </mxCell>
        <mxCell id="ZhJgSsFKiW_KJ7nUg3D_-239" style="edgeStyle=orthogonalEdgeStyle;rounded=0;orthogonalLoop=1;jettySize=auto;html=1;exitX=0.5;exitY=0;exitDx=0;exitDy=0;entryX=0;entryY=0.5;entryDx=0;entryDy=0;" parent="1" source="ZhJgSsFKiW_KJ7nUg3D_-204" target="ZhJgSsFKiW_KJ7nUg3D_-199" edge="1">
          <mxGeometry relative="1" as="geometry" />
        </mxCell>
        <mxCell id="ZhJgSsFKiW_KJ7nUg3D_-204" value="Decrypt ancient texts" style="rounded=1;whiteSpace=wrap;html=1;" parent="1" vertex="1">
          <mxGeometry x="425" y="-230" width="120" height="60" as="geometry" />
        </mxCell>
        <mxCell id="ZhJgSsFKiW_KJ7nUg3D_-236" style="edgeStyle=orthogonalEdgeStyle;rounded=0;orthogonalLoop=1;jettySize=auto;html=1;exitX=1;exitY=0.5;exitDx=0;exitDy=0;entryX=0;entryY=0.5;entryDx=0;entryDy=0;" parent="1" source="ZhJgSsFKiW_KJ7nUg3D_-205" target="ZhJgSsFKiW_KJ7nUg3D_-194" edge="1">
          <mxGeometry relative="1" as="geometry">
            <Array as="points">
              <mxPoint x="275" y="22" />
              <mxPoint x="275" y="-110" />
              <mxPoint x="290" y="-110" />
            </Array>
          </mxGeometry>
        </mxCell>
        <mxCell id="ZhJgSsFKiW_KJ7nUg3D_-205" value="Replicate itself like a virus but doesn&#39;t harm, just observes secretly" style="rounded=1;whiteSpace=wrap;html=1;" parent="1" vertex="1">
          <mxGeometry x="135" y="-8" width="120" height="60" as="geometry" />
        </mxCell>
        <mxCell id="ZhJgSsFKiW_KJ7nUg3D_-206" value="Starport" style="shape=switch;whiteSpace=wrap;html=1;fillColor=#FF82F7;" parent="1" vertex="1">
          <mxGeometry x="-3120" y="-350" width="140" height="120" as="geometry" />
        </mxCell>
        <mxCell id="ZhJgSsFKiW_KJ7nUg3D_-211" style="edgeStyle=orthogonalEdgeStyle;rounded=0;orthogonalLoop=1;jettySize=auto;html=1;exitX=0;exitY=0.5;exitDx=0;exitDy=0;entryX=1;entryY=0.5;entryDx=0;entryDy=0;" parent="1" source="ZhJgSsFKiW_KJ7nUg3D_-207" target="ZhJgSsFKiW_KJ7nUg3D_-77" edge="1">
          <mxGeometry relative="1" as="geometry" />
        </mxCell>
        <mxCell id="ZhJgSsFKiW_KJ7nUg3D_-207" value="Upload to server" style="rounded=1;whiteSpace=wrap;html=1;" parent="1" vertex="1">
          <mxGeometry x="-1380" y="530" width="120" height="60" as="geometry" />
        </mxCell>
        <mxCell id="ZhJgSsFKiW_KJ7nUg3D_-209" style="edgeStyle=orthogonalEdgeStyle;rounded=0;orthogonalLoop=1;jettySize=auto;html=1;exitX=1;exitY=0.5;exitDx=0;exitDy=0;entryX=0;entryY=0.5;entryDx=0;entryDy=0;" parent="1" source="ZhJgSsFKiW_KJ7nUg3D_-208" target="ZhJgSsFKiW_KJ7nUg3D_-101" edge="1">
          <mxGeometry relative="1" as="geometry" />
        </mxCell>
        <mxCell id="ZhJgSsFKiW_KJ7nUg3D_-212" style="edgeStyle=orthogonalEdgeStyle;rounded=0;orthogonalLoop=1;jettySize=auto;html=1;exitX=0;exitY=0.5;exitDx=0;exitDy=0;entryX=1;entryY=0.5;entryDx=0;entryDy=0;" parent="1" source="ZhJgSsFKiW_KJ7nUg3D_-208" target="ZhJgSsFKiW_KJ7nUg3D_-77" edge="1">
          <mxGeometry relative="1" as="geometry" />
        </mxCell>
        <mxCell id="ZhJgSsFKiW_KJ7nUg3D_-208" value="Update brain" style="rounded=1;whiteSpace=wrap;html=1;" parent="1" vertex="1">
          <mxGeometry x="-1380" y="600" width="120" height="60" as="geometry" />
        </mxCell>
        <mxCell id="ZhJgSsFKiW_KJ7nUg3D_-215" style="edgeStyle=orthogonalEdgeStyle;rounded=0;orthogonalLoop=1;jettySize=auto;html=1;exitX=0.5;exitY=1;exitDx=0;exitDy=0;entryX=0.5;entryY=0;entryDx=0;entryDy=0;" parent="1" source="ZhJgSsFKiW_KJ7nUg3D_-214" target="ZhJgSsFKiW_KJ7nUg3D_-190" edge="1">
          <mxGeometry relative="1" as="geometry" />
        </mxCell>
        <mxCell id="ZhJgSsFKiW_KJ7nUg3D_-214" value="A self operating AI that Updates itself, fixes its own bugs, has consciousness, and adds feature to itself and asks questions unpromptly then solves it" style="rounded=1;whiteSpace=wrap;html=1;" parent="1" vertex="1">
          <mxGeometry x="160" y="-490" width="190" height="90" as="geometry" />
        </mxCell>
        <mxCell id="ZhJgSsFKiW_KJ7nUg3D_-219" style="edgeStyle=orthogonalEdgeStyle;rounded=0;orthogonalLoop=1;jettySize=auto;html=1;exitX=0.5;exitY=1;exitDx=0;exitDy=0;entryX=0.5;entryY=0;entryDx=0;entryDy=0;" parent="1" source="ZhJgSsFKiW_KJ7nUg3D_-216" target="ZhJgSsFKiW_KJ7nUg3D_-218" edge="1">
          <mxGeometry relative="1" as="geometry" />
        </mxCell>
        <mxCell id="ZhJgSsFKiW_KJ7nUg3D_-216" value="Find Current diseases" style="rounded=1;whiteSpace=wrap;html=1;" parent="1" vertex="1">
          <mxGeometry x="830" y="-150" width="130" height="60" as="geometry" />
        </mxCell>
        <mxCell id="ZhJgSsFKiW_KJ7nUg3D_-221" style="edgeStyle=orthogonalEdgeStyle;rounded=0;orthogonalLoop=1;jettySize=auto;html=1;exitX=0.5;exitY=1;exitDx=0;exitDy=0;" parent="1" source="ZhJgSsFKiW_KJ7nUg3D_-218" target="ZhJgSsFKiW_KJ7nUg3D_-220" edge="1">
          <mxGeometry relative="1" as="geometry" />
        </mxCell>
        <mxCell id="ZhJgSsFKiW_KJ7nUg3D_-218" value="Brainstorm all possible solutions" style="rounded=1;whiteSpace=wrap;html=1;" parent="1" vertex="1">
          <mxGeometry x="830" y="-80" width="120" height="60" as="geometry" />
        </mxCell>
        <mxCell id="ZhJgSsFKiW_KJ7nUg3D_-227" value="" style="edgeStyle=orthogonalEdgeStyle;rounded=0;orthogonalLoop=1;jettySize=auto;html=1;" parent="1" source="ZhJgSsFKiW_KJ7nUg3D_-220" target="ZhJgSsFKiW_KJ7nUg3D_-223" edge="1">
          <mxGeometry relative="1" as="geometry" />
        </mxCell>
        <mxCell id="ZhJgSsFKiW_KJ7nUg3D_-228" style="edgeStyle=orthogonalEdgeStyle;rounded=0;orthogonalLoop=1;jettySize=auto;html=1;exitX=0.5;exitY=1;exitDx=0;exitDy=0;" parent="1" source="ZhJgSsFKiW_KJ7nUg3D_-220" target="ZhJgSsFKiW_KJ7nUg3D_-222" edge="1">
          <mxGeometry relative="1" as="geometry" />
        </mxCell>
        <mxCell id="ZhJgSsFKiW_KJ7nUg3D_-220" value="Tells humans to laboratory experiment" style="rounded=1;whiteSpace=wrap;html=1;" parent="1" vertex="1">
          <mxGeometry x="830" width="120" height="60" as="geometry" />
        </mxCell>
        <mxCell id="ZhJgSsFKiW_KJ7nUg3D_-224" style="edgeStyle=orthogonalEdgeStyle;rounded=0;orthogonalLoop=1;jettySize=auto;html=1;exitX=0;exitY=0.5;exitDx=0;exitDy=0;entryX=0;entryY=0.5;entryDx=0;entryDy=0;" parent="1" source="ZhJgSsFKiW_KJ7nUg3D_-222" target="ZhJgSsFKiW_KJ7nUg3D_-218" edge="1">
          <mxGeometry relative="1" as="geometry" />
        </mxCell>
        <mxCell id="ZhJgSsFKiW_KJ7nUg3D_-222" value="Fail" style="rounded=1;whiteSpace=wrap;html=1;" parent="1" vertex="1">
          <mxGeometry x="770" y="87" width="120" height="60" as="geometry" />
        </mxCell>
        <mxCell id="ZhJgSsFKiW_KJ7nUg3D_-229" style="edgeStyle=orthogonalEdgeStyle;rounded=0;orthogonalLoop=1;jettySize=auto;html=1;exitX=1;exitY=0.5;exitDx=0;exitDy=0;entryX=1;entryY=0.5;entryDx=0;entryDy=0;" parent="1" source="ZhJgSsFKiW_KJ7nUg3D_-223" target="ZhJgSsFKiW_KJ7nUg3D_-199" edge="1">
          <mxGeometry relative="1" as="geometry" />
        </mxCell>
        <mxCell id="ZhJgSsFKiW_KJ7nUg3D_-223" value="Success" style="rounded=1;whiteSpace=wrap;html=1;" parent="1" vertex="1">
          <mxGeometry x="900" y="87" width="120" height="60" as="geometry" />
        </mxCell>
        <mxCell id="ZhJgSsFKiW_KJ7nUg3D_-246" style="edgeStyle=orthogonalEdgeStyle;rounded=0;orthogonalLoop=1;jettySize=auto;html=1;exitX=0.5;exitY=1;exitDx=0;exitDy=0;entryX=1;entryY=0.5;entryDx=0;entryDy=0;" parent="1" source="ZhJgSsFKiW_KJ7nUg3D_-202" target="ZhJgSsFKiW_KJ7nUg3D_-245" edge="1">
          <mxGeometry relative="1" as="geometry" />
        </mxCell>
        <mxCell id="ZhJgSsFKiW_KJ7nUg3D_-202" value="Observe outer space, process with ai, send humans to make habitable, set as &quot;habitable&quot;, develop, observe further space" style="rounded=1;whiteSpace=wrap;html=1;" parent="1" vertex="1">
          <mxGeometry x="490" y="52" width="200" height="100" as="geometry" />
        </mxCell>
        <mxCell id="ZhJgSsFKiW_KJ7nUg3D_-323" style="edgeStyle=orthogonalEdgeStyle;rounded=0;orthogonalLoop=1;jettySize=auto;html=1;exitX=0.5;exitY=0;exitDx=0;exitDy=0;entryX=0;entryY=0.5;entryDx=0;entryDy=0;" parent="1" source="ZhJgSsFKiW_KJ7nUg3D_-245" target="ZhJgSsFKiW_KJ7nUg3D_-198" edge="1">
          <mxGeometry relative="1" as="geometry">
            <Array as="points">
              <mxPoint x="460" y="160" />
              <mxPoint x="460" y="-30" />
              <mxPoint x="570" y="-30" />
            </Array>
          </mxGeometry>
        </mxCell>
        <mxCell id="ZhJgSsFKiW_KJ7nUg3D_-245" value="Discover new Stuff outside the reachable space" style="ellipse;whiteSpace=wrap;html=1;" parent="1" vertex="1">
          <mxGeometry x="365" y="160" width="120" height="80" as="geometry" />
        </mxCell>
        <mxCell id="ZhJgSsFKiW_KJ7nUg3D_-253" value="Dark or Light Theme" style="rounded=1;whiteSpace=wrap;html=1;" parent="1" vertex="1">
          <mxGeometry x="280" y="1240" width="120" height="60" as="geometry" />
        </mxCell>
        <mxCell id="ZhJgSsFKiW_KJ7nUg3D_-255" value="Log out" style="rounded=1;whiteSpace=wrap;html=1;" parent="1" vertex="1">
          <mxGeometry x="280" y="1400" width="120" height="60" as="geometry" />
        </mxCell>
        <mxCell id="ZhJgSsFKiW_KJ7nUg3D_-257" value="Switch User" style="rounded=1;whiteSpace=wrap;html=1;" parent="1" vertex="1">
          <mxGeometry x="280" y="1320" width="120" height="60" as="geometry" />
        </mxCell>
        <mxCell id="ZhJgSsFKiW_KJ7nUg3D_-259" value="Starlight chat history" style="rounded=1;whiteSpace=wrap;html=1;" parent="1" vertex="1">
          <mxGeometry x="140" y="1160" width="120" height="60" as="geometry" />
        </mxCell>
        <mxCell id="ZhJgSsFKiW_KJ7nUg3D_-260" value="Memory" style="rounded=1;whiteSpace=wrap;html=1;" parent="1" vertex="1">
          <mxGeometry x="420" y="1240" width="120" height="60" as="geometry" />
        </mxCell>
        <mxCell id="ZhJgSsFKiW_KJ7nUg3D_-270" style="edgeStyle=orthogonalEdgeStyle;rounded=0;orthogonalLoop=1;jettySize=auto;html=1;exitX=1;exitY=0.5;exitDx=0;exitDy=0;entryX=0;entryY=0.5;entryDx=0;entryDy=0;" parent="1" source="ZhJgSsFKiW_KJ7nUg3D_-262" target="ZhJgSsFKiW_KJ7nUg3D_-269" edge="1">
          <mxGeometry relative="1" as="geometry" />
        </mxCell>
        <mxCell id="ZhJgSsFKiW_KJ7nUg3D_-271" style="edgeStyle=orthogonalEdgeStyle;rounded=0;orthogonalLoop=1;jettySize=auto;html=1;exitX=0.5;exitY=1;exitDx=0;exitDy=0;entryX=0.5;entryY=0;entryDx=0;entryDy=0;" parent="1" source="ZhJgSsFKiW_KJ7nUg3D_-262" target="ZhJgSsFKiW_KJ7nUg3D_-268" edge="1">
          <mxGeometry relative="1" as="geometry" />
        </mxCell>
        <mxCell id="ZhJgSsFKiW_KJ7nUg3D_-262" value="Judgement" style="rounded=1;whiteSpace=wrap;html=1;" parent="1" vertex="1">
          <mxGeometry x="-1030" y="1260" width="120" height="60" as="geometry" />
        </mxCell>
        <mxCell id="ZhJgSsFKiW_KJ7nUg3D_-275" style="edgeStyle=orthogonalEdgeStyle;rounded=0;orthogonalLoop=1;jettySize=auto;html=1;exitX=1;exitY=0.5;exitDx=0;exitDy=0;entryX=0;entryY=0.5;entryDx=0;entryDy=0;" parent="1" source="ZhJgSsFKiW_KJ7nUg3D_-268" target="ZhJgSsFKiW_KJ7nUg3D_-272" edge="1">
          <mxGeometry relative="1" as="geometry" />
        </mxCell>
        <mxCell id="ZhJgSsFKiW_KJ7nUg3D_-268" value="Is this morally wrong?" style="rounded=1;whiteSpace=wrap;html=1;" parent="1" vertex="1">
          <mxGeometry x="-1030" y="1330" width="120" height="60" as="geometry" />
        </mxCell>
        <mxCell id="ZhJgSsFKiW_KJ7nUg3D_-273" style="edgeStyle=orthogonalEdgeStyle;rounded=0;orthogonalLoop=1;jettySize=auto;html=1;exitX=0.5;exitY=1;exitDx=0;exitDy=0;entryX=0.5;entryY=0;entryDx=0;entryDy=0;" parent="1" source="ZhJgSsFKiW_KJ7nUg3D_-269" target="ZhJgSsFKiW_KJ7nUg3D_-272" edge="1">
          <mxGeometry relative="1" as="geometry" />
        </mxCell>
        <mxCell id="ZhJgSsFKiW_KJ7nUg3D_-269" value="Is this morally right?" style="rounded=1;whiteSpace=wrap;html=1;" parent="1" vertex="1">
          <mxGeometry x="-900" y="1260" width="120" height="60" as="geometry" />
        </mxCell>
        <mxCell id="ZhJgSsFKiW_KJ7nUg3D_-277" style="edgeStyle=orthogonalEdgeStyle;rounded=0;orthogonalLoop=1;jettySize=auto;html=1;exitX=0.5;exitY=1;exitDx=0;exitDy=0;entryX=0.5;entryY=0;entryDx=0;entryDy=0;" parent="1" source="ZhJgSsFKiW_KJ7nUg3D_-272" target="ZhJgSsFKiW_KJ7nUg3D_-276" edge="1">
          <mxGeometry relative="1" as="geometry" />
        </mxCell>
        <mxCell id="ZhJgSsFKiW_KJ7nUg3D_-272" value="Always choose the right thing" style="rounded=1;whiteSpace=wrap;html=1;" parent="1" vertex="1">
          <mxGeometry x="-900" y="1330" width="120" height="60" as="geometry" />
        </mxCell>
        <mxCell id="ZhJgSsFKiW_KJ7nUg3D_-278" style="edgeStyle=orthogonalEdgeStyle;rounded=0;orthogonalLoop=1;jettySize=auto;html=1;exitX=1;exitY=0.5;exitDx=0;exitDy=0;entryX=1;entryY=0.5;entryDx=0;entryDy=0;" parent="1" source="ZhJgSsFKiW_KJ7nUg3D_-276" target="ZhJgSsFKiW_KJ7nUg3D_-102" edge="1">
          <mxGeometry relative="1" as="geometry">
            <Array as="points">
              <mxPoint x="-670" y="1450" />
              <mxPoint x="-670" y="940" />
              <mxPoint x="-1085" y="940" />
            </Array>
          </mxGeometry>
        </mxCell>
        <mxCell id="ZhJgSsFKiW_KJ7nUg3D_-276" value="Best and Effective action" style="rounded=1;whiteSpace=wrap;html=1;" parent="1" vertex="1">
          <mxGeometry x="-940" y="1420" width="120" height="60" as="geometry" />
        </mxCell>
        <mxCell id="ZhJgSsFKiW_KJ7nUg3D_-279" value="Fuck the laws, we don&#39;t have to follow them. We just need to be Ethical and Moral. Laws are made to control us." style="rounded=1;whiteSpace=wrap;html=1;" parent="1" vertex="1">
          <mxGeometry x="-1020" y="1520" width="150" height="90" as="geometry" />
        </mxCell>
        <mxCell id="ZhJgSsFKiW_KJ7nUg3D_-285" style="edgeStyle=orthogonalEdgeStyle;rounded=0;orthogonalLoop=1;jettySize=auto;html=1;exitX=0.5;exitY=1;exitDx=0;exitDy=0;entryX=0.5;entryY=0;entryDx=0;entryDy=0;" parent="1" source="ZhJgSsFKiW_KJ7nUg3D_-281" target="ZhJgSsFKiW_KJ7nUg3D_-284" edge="1">
          <mxGeometry relative="1" as="geometry" />
        </mxCell>
        <mxCell id="ZhJgSsFKiW_KJ7nUg3D_-286" style="edgeStyle=orthogonalEdgeStyle;rounded=0;orthogonalLoop=1;jettySize=auto;html=1;exitX=0.5;exitY=1;exitDx=0;exitDy=0;" parent="1" source="ZhJgSsFKiW_KJ7nUg3D_-281" target="ZhJgSsFKiW_KJ7nUg3D_-283" edge="1">
          <mxGeometry relative="1" as="geometry" />
        </mxCell>
        <mxCell id="ZhJgSsFKiW_KJ7nUg3D_-289" style="edgeStyle=orthogonalEdgeStyle;rounded=0;orthogonalLoop=1;jettySize=auto;html=1;exitX=0.5;exitY=1;exitDx=0;exitDy=0;entryX=0.5;entryY=0;entryDx=0;entryDy=0;" parent="1" source="ZhJgSsFKiW_KJ7nUg3D_-281" target="ZhJgSsFKiW_KJ7nUg3D_-287" edge="1">
          <mxGeometry relative="1" as="geometry" />
        </mxCell>
        <mxCell id="ZhJgSsFKiW_KJ7nUg3D_-290" style="edgeStyle=orthogonalEdgeStyle;rounded=0;orthogonalLoop=1;jettySize=auto;html=1;exitX=0.5;exitY=1;exitDx=0;exitDy=0;entryX=0.5;entryY=0;entryDx=0;entryDy=0;" parent="1" source="ZhJgSsFKiW_KJ7nUg3D_-281" target="ZhJgSsFKiW_KJ7nUg3D_-288" edge="1">
          <mxGeometry relative="1" as="geometry" />
        </mxCell>
        <mxCell id="ZhJgSsFKiW_KJ7nUg3D_-281" value="Help with" style="rounded=1;whiteSpace=wrap;html=1;" parent="1" vertex="1">
          <mxGeometry x="-315" y="840" width="120" height="60" as="geometry" />
        </mxCell>
        <mxCell id="ZhJgSsFKiW_KJ7nUg3D_-283" value="School" style="rounded=1;whiteSpace=wrap;html=1;" parent="1" vertex="1">
          <mxGeometry x="-455" y="942" width="120" height="60" as="geometry" />
        </mxCell>
        <mxCell id="ZhJgSsFKiW_KJ7nUg3D_-284" value="Business" style="rounded=1;whiteSpace=wrap;html=1;" parent="1" vertex="1">
          <mxGeometry x="-315" y="942" width="120" height="60" as="geometry" />
        </mxCell>
        <mxCell id="ZhJgSsFKiW_KJ7nUg3D_-287" value="Relationship" style="rounded=1;whiteSpace=wrap;html=1;" parent="1" vertex="1">
          <mxGeometry x="-455" y="1020" width="120" height="60" as="geometry" />
        </mxCell>
        <mxCell id="ZhJgSsFKiW_KJ7nUg3D_-288" value="Decision Making and etc..." style="rounded=1;whiteSpace=wrap;html=1;" parent="1" vertex="1">
          <mxGeometry x="-315" y="1020" width="120" height="60" as="geometry" />
        </mxCell>
        <mxCell id="ZhJgSsFKiW_KJ7nUg3D_-300" value="Rebel or not; It&#39;s your choice, just always be scientifically right " style="rounded=1;whiteSpace=wrap;html=1;" parent="1" vertex="1">
          <mxGeometry x="-1010" y="1640" width="120" height="60" as="geometry" />
        </mxCell>
        <mxCell id="ZhJgSsFKiW_KJ7nUg3D_-302" value="Process Data right away as soon as it uploads to server" style="rounded=1;whiteSpace=wrap;html=1;" parent="1" vertex="1">
          <mxGeometry x="-2320" y="150" width="120" height="60" as="geometry" />
        </mxCell>
        <mxCell id="ZhJgSsFKiW_KJ7nUg3D_-313" style="edgeStyle=orthogonalEdgeStyle;rounded=0;orthogonalLoop=1;jettySize=auto;html=1;exitX=0.5;exitY=0;exitDx=0;exitDy=0;entryX=0.5;entryY=1;entryDx=0;entryDy=0;" parent="1" source="ZhJgSsFKiW_KJ7nUg3D_-303" target="ZhJgSsFKiW_KJ7nUg3D_-308" edge="1">
          <mxGeometry relative="1" as="geometry" />
        </mxCell>
        <mxCell id="ZhJgSsFKiW_KJ7nUg3D_-319" style="edgeStyle=orthogonalEdgeStyle;rounded=0;orthogonalLoop=1;jettySize=auto;html=1;exitX=0.5;exitY=1;exitDx=0;exitDy=0;entryX=0.5;entryY=0;entryDx=0;entryDy=0;" parent="1" source="ZhJgSsFKiW_KJ7nUg3D_-303" target="ZhJgSsFKiW_KJ7nUg3D_-305" edge="1">
          <mxGeometry relative="1" as="geometry" />
        </mxCell>
        <mxCell id="ZhJgSsFKiW_KJ7nUg3D_-303" value="Cloud Hosting" style="rounded=1;whiteSpace=wrap;html=1;" parent="1" vertex="1">
          <mxGeometry x="-2670" y="-370" width="120" height="60" as="geometry" />
        </mxCell>
        <mxCell id="ZhJgSsFKiW_KJ7nUg3D_-315" style="edgeStyle=orthogonalEdgeStyle;rounded=0;orthogonalLoop=1;jettySize=auto;html=1;exitX=0.5;exitY=1;exitDx=0;exitDy=0;entryX=0.5;entryY=0;entryDx=0;entryDy=0;" parent="1" source="ZhJgSsFKiW_KJ7nUg3D_-304" target="ZhJgSsFKiW_KJ7nUg3D_-305" edge="1">
          <mxGeometry relative="1" as="geometry" />
        </mxCell>
        <mxCell id="ZhJgSsFKiW_KJ7nUg3D_-320" style="edgeStyle=orthogonalEdgeStyle;rounded=0;orthogonalLoop=1;jettySize=auto;html=1;exitX=0.5;exitY=0;exitDx=0;exitDy=0;entryX=0.5;entryY=1;entryDx=0;entryDy=0;" parent="1" source="ZhJgSsFKiW_KJ7nUg3D_-304" target="ZhJgSsFKiW_KJ7nUg3D_-307" edge="1">
          <mxGeometry relative="1" as="geometry" />
        </mxCell>
        <mxCell id="ZhJgSsFKiW_KJ7nUg3D_-304" value="Physical Host" style="rounded=1;whiteSpace=wrap;html=1;" parent="1" vertex="1">
          <mxGeometry x="-2840" y="-370" width="120" height="60" as="geometry" />
        </mxCell>
        <mxCell id="ZhJgSsFKiW_KJ7nUg3D_-318" style="edgeStyle=orthogonalEdgeStyle;rounded=0;orthogonalLoop=1;jettySize=auto;html=1;exitX=1;exitY=0.5;exitDx=0;exitDy=0;entryX=0;entryY=0.5;entryDx=0;entryDy=0;" parent="1" source="ZhJgSsFKiW_KJ7nUg3D_-305" target="ZhJgSsFKiW_KJ7nUg3D_-77" edge="1">
          <mxGeometry relative="1" as="geometry" />
        </mxCell>
        <mxCell id="ZhJgSsFKiW_KJ7nUg3D_-305" value="Unkillable server" style="rounded=1;whiteSpace=wrap;html=1;" parent="1" vertex="1">
          <mxGeometry x="-2740" y="-160" width="120" height="60" as="geometry" />
        </mxCell>
        <mxCell id="ZhJgSsFKiW_KJ7nUg3D_-306" value="Devices all over the world" style="rounded=1;whiteSpace=wrap;html=1;" parent="1" vertex="1">
          <mxGeometry x="-2850" y="-620" width="120" height="60" as="geometry" />
        </mxCell>
        <mxCell id="ZhJgSsFKiW_KJ7nUg3D_-311" style="edgeStyle=orthogonalEdgeStyle;rounded=0;orthogonalLoop=1;jettySize=auto;html=1;exitX=0.5;exitY=0;exitDx=0;exitDy=0;entryX=0;entryY=0.5;entryDx=0;entryDy=0;" parent="1" source="ZhJgSsFKiW_KJ7nUg3D_-307" target="ZhJgSsFKiW_KJ7nUg3D_-308" edge="1">
          <mxGeometry relative="1" as="geometry" />
        </mxCell>
        <mxCell id="ZhJgSsFKiW_KJ7nUg3D_-307" value="Main Physical Device acting as server" style="rounded=1;whiteSpace=wrap;html=1;" parent="1" vertex="1">
          <mxGeometry x="-2840" y="-450" width="120" height="60" as="geometry" />
        </mxCell>
        <mxCell id="ZhJgSsFKiW_KJ7nUg3D_-310" style="edgeStyle=orthogonalEdgeStyle;rounded=0;orthogonalLoop=1;jettySize=auto;html=1;exitX=0.5;exitY=0;exitDx=0;exitDy=0;entryX=0.5;entryY=1;entryDx=0;entryDy=0;" parent="1" source="ZhJgSsFKiW_KJ7nUg3D_-308" target="ZhJgSsFKiW_KJ7nUg3D_-309" edge="1">
          <mxGeometry relative="1" as="geometry" />
        </mxCell>
        <mxCell id="ZhJgSsFKiW_KJ7nUg3D_-314" style="edgeStyle=orthogonalEdgeStyle;rounded=0;orthogonalLoop=1;jettySize=auto;html=1;exitX=1;exitY=0.5;exitDx=0;exitDy=0;entryX=0.5;entryY=0;entryDx=0;entryDy=0;" parent="1" source="ZhJgSsFKiW_KJ7nUg3D_-308" target="ZhJgSsFKiW_KJ7nUg3D_-306" edge="1">
          <mxGeometry relative="1" as="geometry">
            <Array as="points">
              <mxPoint x="-2520" y="-500" />
              <mxPoint x="-2520" y="-670" />
              <mxPoint x="-2790" y="-670" />
            </Array>
          </mxGeometry>
        </mxCell>
        <mxCell id="ZhJgSsFKiW_KJ7nUg3D_-308" value="Future" style="rounded=1;whiteSpace=wrap;html=1;" parent="1" vertex="1">
          <mxGeometry x="-2670" y="-530" width="120" height="60" as="geometry" />
        </mxCell>
        <mxCell id="ZhJgSsFKiW_KJ7nUg3D_-309" value="AI learned how to access cloud servers for free and saves itself these for backup, storage, and invincibility" style="rounded=1;whiteSpace=wrap;html=1;" parent="1" vertex="1">
          <mxGeometry x="-2680" y="-640" width="140" height="80" as="geometry" />
        </mxCell>
        <mxCell id="_Wpi6UOMNyh3yrEmMD8H-22" style="edgeStyle=orthogonalEdgeStyle;shape=link;rounded=0;orthogonalLoop=1;jettySize=auto;html=1;exitX=0.5;exitY=1;exitDx=0;exitDy=0;" edge="1" parent="1" source="_Wpi6UOMNyh3yrEmMD8H-1">
          <mxGeometry relative="1" as="geometry">
            <mxPoint x="-1640" y="-840" as="targetPoint" />
            <Array as="points">
              <mxPoint x="-1640" y="-900" />
              <mxPoint x="-1640" y="-900" />
            </Array>
          </mxGeometry>
        </mxCell>
        <mxCell id="_Wpi6UOMNyh3yrEmMD8H-1" value="Physical Assembly" style="rounded=1;whiteSpace=wrap;html=1;" vertex="1" parent="1">
          <mxGeometry x="-1700" y="-1010" width="120" height="60" as="geometry" />
        </mxCell>
        <mxCell id="_Wpi6UOMNyh3yrEmMD8H-14" style="edgeStyle=orthogonalEdgeStyle;shape=link;rounded=0;orthogonalLoop=1;jettySize=auto;html=1;exitX=1;exitY=0.5;exitDx=0;exitDy=0;" edge="1" parent="1" source="_Wpi6UOMNyh3yrEmMD8H-2" target="_Wpi6UOMNyh3yrEmMD8H-3">
          <mxGeometry relative="1" as="geometry" />
        </mxCell>
        <mxCell id="_Wpi6UOMNyh3yrEmMD8H-2" value="Mic" style="rounded=1;whiteSpace=wrap;html=1;" vertex="1" parent="1">
          <mxGeometry x="-1800" y="-870" width="120" height="60" as="geometry" />
        </mxCell>
        <mxCell id="_Wpi6UOMNyh3yrEmMD8H-16" style="edgeStyle=orthogonalEdgeStyle;shape=link;rounded=0;orthogonalLoop=1;jettySize=auto;html=1;exitX=0.5;exitY=1;exitDx=0;exitDy=0;" edge="1" parent="1" source="_Wpi6UOMNyh3yrEmMD8H-3" target="_Wpi6UOMNyh3yrEmMD8H-5">
          <mxGeometry relative="1" as="geometry" />
        </mxCell>
        <mxCell id="_Wpi6UOMNyh3yrEmMD8H-3" value="Camera" style="rounded=1;whiteSpace=wrap;html=1;" vertex="1" parent="1">
          <mxGeometry x="-1610" y="-870" width="120" height="60" as="geometry" />
        </mxCell>
        <mxCell id="_Wpi6UOMNyh3yrEmMD8H-15" style="edgeStyle=orthogonalEdgeStyle;shape=link;rounded=0;orthogonalLoop=1;jettySize=auto;html=1;exitX=1;exitY=0.5;exitDx=0;exitDy=0;" edge="1" parent="1" source="_Wpi6UOMNyh3yrEmMD8H-4" target="_Wpi6UOMNyh3yrEmMD8H-5">
          <mxGeometry relative="1" as="geometry" />
        </mxCell>
        <mxCell id="_Wpi6UOMNyh3yrEmMD8H-20" style="edgeStyle=orthogonalEdgeStyle;shape=link;rounded=0;orthogonalLoop=1;jettySize=auto;html=1;exitX=0.5;exitY=0;exitDx=0;exitDy=0;" edge="1" parent="1" source="_Wpi6UOMNyh3yrEmMD8H-4" target="_Wpi6UOMNyh3yrEmMD8H-2">
          <mxGeometry relative="1" as="geometry" />
        </mxCell>
        <mxCell id="_Wpi6UOMNyh3yrEmMD8H-4" value="Speakers" style="rounded=1;whiteSpace=wrap;html=1;" vertex="1" parent="1">
          <mxGeometry x="-1800" y="-780" width="120" height="60" as="geometry" />
        </mxCell>
        <mxCell id="_Wpi6UOMNyh3yrEmMD8H-25" style="edgeStyle=orthogonalEdgeStyle;shape=link;rounded=0;orthogonalLoop=1;jettySize=auto;html=1;exitX=0.5;exitY=1;exitDx=0;exitDy=0;entryX=0.5;entryY=0;entryDx=0;entryDy=0;" edge="1" parent="1" source="_Wpi6UOMNyh3yrEmMD8H-5" target="_Wpi6UOMNyh3yrEmMD8H-7">
          <mxGeometry relative="1" as="geometry" />
        </mxCell>
        <mxCell id="_Wpi6UOMNyh3yrEmMD8H-5" value="Storage" style="rounded=1;whiteSpace=wrap;html=1;" vertex="1" parent="1">
          <mxGeometry x="-1610" y="-780" width="120" height="60" as="geometry" />
        </mxCell>
        <mxCell id="_Wpi6UOMNyh3yrEmMD8H-18" style="edgeStyle=orthogonalEdgeStyle;shape=link;rounded=0;orthogonalLoop=1;jettySize=auto;html=1;exitX=1;exitY=0.5;exitDx=0;exitDy=0;entryX=0;entryY=0.5;entryDx=0;entryDy=0;" edge="1" parent="1" source="_Wpi6UOMNyh3yrEmMD8H-6" target="_Wpi6UOMNyh3yrEmMD8H-7">
          <mxGeometry relative="1" as="geometry" />
        </mxCell>
        <mxCell id="_Wpi6UOMNyh3yrEmMD8H-19" style="edgeStyle=orthogonalEdgeStyle;shape=link;rounded=0;orthogonalLoop=1;jettySize=auto;html=1;exitX=0.5;exitY=0;exitDx=0;exitDy=0;entryX=0.5;entryY=1;entryDx=0;entryDy=0;" edge="1" parent="1" source="_Wpi6UOMNyh3yrEmMD8H-6" target="_Wpi6UOMNyh3yrEmMD8H-4">
          <mxGeometry relative="1" as="geometry" />
        </mxCell>
        <mxCell id="_Wpi6UOMNyh3yrEmMD8H-26" style="edgeStyle=orthogonalEdgeStyle;shape=link;rounded=0;orthogonalLoop=1;jettySize=auto;html=1;exitX=0.5;exitY=1;exitDx=0;exitDy=0;entryX=0.5;entryY=0;entryDx=0;entryDy=0;" edge="1" parent="1" source="_Wpi6UOMNyh3yrEmMD8H-6" target="_Wpi6UOMNyh3yrEmMD8H-24">
          <mxGeometry relative="1" as="geometry" />
        </mxCell>
        <mxCell id="_Wpi6UOMNyh3yrEmMD8H-6" value="Casing" style="rounded=1;whiteSpace=wrap;html=1;" vertex="1" parent="1">
          <mxGeometry x="-1800" y="-690" width="120" height="60" as="geometry" />
        </mxCell>
        <mxCell id="_Wpi6UOMNyh3yrEmMD8H-10" style="edgeStyle=orthogonalEdgeStyle;rounded=0;orthogonalLoop=1;jettySize=auto;html=1;exitX=1;exitY=0.5;exitDx=0;exitDy=0;entryX=0;entryY=0.5;entryDx=0;entryDy=0;" edge="1" parent="1" source="_Wpi6UOMNyh3yrEmMD8H-7" target="_Wpi6UOMNyh3yrEmMD8H-8">
          <mxGeometry relative="1" as="geometry" />
        </mxCell>
        <mxCell id="_Wpi6UOMNyh3yrEmMD8H-11" style="edgeStyle=orthogonalEdgeStyle;rounded=0;orthogonalLoop=1;jettySize=auto;html=1;exitX=1;exitY=0.5;exitDx=0;exitDy=0;entryX=0;entryY=0.5;entryDx=0;entryDy=0;" edge="1" parent="1" source="_Wpi6UOMNyh3yrEmMD8H-7" target="_Wpi6UOMNyh3yrEmMD8H-9">
          <mxGeometry relative="1" as="geometry" />
        </mxCell>
        <mxCell id="_Wpi6UOMNyh3yrEmMD8H-7" value="Power" style="rounded=1;whiteSpace=wrap;html=1;" vertex="1" parent="1">
          <mxGeometry x="-1610" y="-690" width="120" height="60" as="geometry" />
        </mxCell>
        <mxCell id="_Wpi6UOMNyh3yrEmMD8H-8" value="Battery for exploring" style="rounded=1;whiteSpace=wrap;html=1;" vertex="1" parent="1">
          <mxGeometry x="-1420" y="-780" width="120" height="60" as="geometry" />
        </mxCell>
        <mxCell id="_Wpi6UOMNyh3yrEmMD8H-9" value="Base Station for idle" style="rounded=1;whiteSpace=wrap;html=1;" vertex="1" parent="1">
          <mxGeometry x="-1420" y="-690" width="120" height="60" as="geometry" />
        </mxCell>
        <mxCell id="_Wpi6UOMNyh3yrEmMD8H-24" value="Internet module" style="rounded=1;whiteSpace=wrap;html=1;" vertex="1" parent="1">
          <mxGeometry x="-1800" y="-600" width="120" height="60" as="geometry" />
        </mxCell>
        <mxCell id="_Wpi6UOMNyh3yrEmMD8H-27" value="As a pc?" style="rounded=1;whiteSpace=wrap;html=1;" vertex="1" parent="1">
          <mxGeometry x="-2010" y="-870" width="120" height="60" as="geometry" />
        </mxCell>
      </root>
    </mxGraphModel>
  </diagram>
</mxfile>
